<?xml version="1.0" encoding="UTF-8" standalone="no"?>
<!DOCTYPE svg PUBLIC "-//W3C//DTD SVG 1.1//EN"
 "http://www.w3.org/Graphics/SVG/1.1/DTD/svg11.dtd">
<!-- Generated by graphviz version 2.38.0 (20140413.2041)
 -->
<!-- Title: G Pages: 1 -->
<svg width="1118pt" height="2222pt"
 viewBox="0.00 0.00 1118.00 2222.00" xmlns="http://www.w3.org/2000/svg" xmlns:xlink="http://www.w3.org/1999/xlink">
<g id="graph0" class="graph" transform="scale(1 1) rotate(0) translate(4 2218)">
<title>G</title>
<polygon fill="white" stroke="none" points="-4,4 -4,-2218 1114,-2218 1114,4 -4,4"/>
<g id="clust1" class="cluster"><title>cluster_Global</title>
<path fill="none" stroke="gray" d="M20,-206C20,-206 1090,-206 1090,-206 1096,-206 1102,-212 1102,-218 1102,-218 1102,-2194 1102,-2194 1102,-2200 1096,-2206 1090,-2206 1090,-2206 20,-2206 20,-2206 14,-2206 8,-2200 8,-2194 8,-2194 8,-218 8,-218 8,-212 14,-206 20,-206"/>
<text text-anchor="middle" x="555" y="-2193.2" font-family="Times New Roman,serif" font-size="11.00" fill="gray">Global</text>
</g>
<g id="clust2" class="cluster"><title>cluster_\classes</title>
<path fill="none" stroke="gray" d="M705.5,-456C705.5,-456 1082,-456 1082,-456 1088,-456 1094,-462 1094,-468 1094,-468 1094,-1788 1094,-1788 1094,-1794 1088,-1800 1082,-1800 1082,-1800 705.5,-1800 705.5,-1800 699.5,-1800 693.5,-1794 693.5,-1788 693.5,-1788 693.5,-468 693.5,-468 693.5,-462 699.5,-456 705.5,-456"/>
<text text-anchor="middle" x="893.75" y="-1787.2" font-family="Times New Roman,serif" font-size="11.00" fill="gray">classes</text>
</g>
<g id="clust4" class="cluster"><title>cluster_\classes\logger</title>
<path fill="none" stroke="gray" d="M930.5,-1592C930.5,-1592 1026.5,-1592 1026.5,-1592 1032.5,-1592 1038.5,-1598 1038.5,-1604 1038.5,-1604 1038.5,-1760 1038.5,-1760 1038.5,-1766 1032.5,-1772 1026.5,-1772 1026.5,-1772 930.5,-1772 930.5,-1772 924.5,-1772 918.5,-1766 918.5,-1760 918.5,-1760 918.5,-1604 918.5,-1604 918.5,-1598 924.5,-1592 930.5,-1592"/>
<text text-anchor="middle" x="978.5" y="-1759.2" font-family="Times New Roman,serif" font-size="11.00" fill="gray">logger</text>
</g>
<g id="clust3" class="cluster"><title>cluster_\classes\entitiesManager</title>
<path fill="none" stroke="gray" d="M883,-1350C883,-1350 1074,-1350 1074,-1350 1080,-1350 1086,-1356 1086,-1362 1086,-1362 1086,-1572 1086,-1572 1086,-1578 1080,-1584 1074,-1584 1074,-1584 883,-1584 883,-1584 877,-1584 871,-1578 871,-1572 871,-1572 871,-1362 871,-1362 871,-1356 877,-1350 883,-1350"/>
<text text-anchor="middle" x="978.5" y="-1571.2" font-family="Times New Roman,serif" font-size="11.00" fill="gray">entitiesManager</text>
</g>
<g id="clust9" class="cluster"><title>cluster_\classes\entitiesCollection</title>
<path fill="none" stroke="gray" d="M927,-1270C927,-1270 1030,-1270 1030,-1270 1036,-1270 1042,-1276 1042,-1282 1042,-1282 1042,-1330 1042,-1330 1042,-1336 1036,-1342 1030,-1342 1030,-1342 927,-1342 927,-1342 921,-1342 915,-1336 915,-1330 915,-1330 915,-1282 915,-1282 915,-1276 921,-1270 927,-1270"/>
<text text-anchor="middle" x="978.5" y="-1329.2" font-family="Times New Roman,serif" font-size="11.00" fill="gray">entitiesCollection</text>
</g>
<g id="clust7" class="cluster"><title>cluster_\classes\console</title>
<path fill="none" stroke="gray" d="M930.5,-1136C930.5,-1136 1026.5,-1136 1026.5,-1136 1032.5,-1136 1038.5,-1142 1038.5,-1148 1038.5,-1148 1038.5,-1250 1038.5,-1250 1038.5,-1256 1032.5,-1262 1026.5,-1262 1026.5,-1262 930.5,-1262 930.5,-1262 924.5,-1262 918.5,-1256 918.5,-1250 918.5,-1250 918.5,-1148 918.5,-1148 918.5,-1142 924.5,-1136 930.5,-1136"/>
<text text-anchor="middle" x="978.5" y="-1249.2" font-family="Times New Roman,serif" font-size="11.00" fill="gray">console</text>
</g>
<g id="clust8" class="cluster"><title>cluster_\classes\entities</title>
<path fill="none" stroke="gray" d="M927,-948C927,-948 1030,-948 1030,-948 1036,-948 1042,-954 1042,-960 1042,-960 1042,-1116 1042,-1116 1042,-1122 1036,-1128 1030,-1128 1030,-1128 927,-1128 927,-1128 921,-1128 915,-1122 915,-1116 915,-1116 915,-960 915,-960 915,-954 921,-948 927,-948"/>
<text text-anchor="middle" x="978.5" y="-1115.2" font-family="Times New Roman,serif" font-size="11.00" fill="gray">entities</text>
</g>
<g id="clust5" class="cluster"><title>cluster_\classes\websocket</title>
<path fill="none" stroke="gray" d="M713.5,-832C713.5,-832 1028,-832 1028,-832 1034,-832 1040,-838 1040,-844 1040,-844 1040,-928 1040,-928 1040,-934 1034,-940 1028,-940 1028,-940 713.5,-940 713.5,-940 707.5,-940 701.5,-934 701.5,-928 701.5,-928 701.5,-844 701.5,-844 701.5,-838 707.5,-832 713.5,-832"/>
<text text-anchor="middle" x="870.75" y="-927.2" font-family="Times New Roman,serif" font-size="11.00" fill="gray">websocket</text>
</g>
<g id="clust6" class="cluster"><title>cluster_\classes\websocket\services</title>
<path fill="none" stroke="gray" d="M937,-840C937,-840 1020,-840 1020,-840 1026,-840 1032,-846 1032,-852 1032,-852 1032,-900 1032,-900 1032,-906 1026,-912 1020,-912 1020,-912 937,-912 937,-912 931,-912 925,-906 925,-900 925,-900 925,-852 925,-852 925,-846 931,-840 937,-840"/>
<text text-anchor="middle" x="978.5" y="-899.2" font-family="Times New Roman,serif" font-size="11.00" fill="gray">services</text>
</g>
<g id="clust10" class="cluster"><title>cluster_\interfaces</title>
<path fill="none" stroke="gray" d="M28,-1808C28,-1808 601,-1808 601,-1808 607,-1808 613,-1814 613,-1820 613,-1820 613,-2166 613,-2166 613,-2172 607,-2178 601,-2178 601,-2178 28,-2178 28,-2178 22,-2178 16,-2172 16,-2166 16,-2166 16,-1820 16,-1820 16,-1814 22,-1808 28,-1808"/>
<text text-anchor="middle" x="314.5" y="-2165.2" font-family="Times New Roman,serif" font-size="11.00" fill="gray">interfaces</text>
</g>
<g id="clust11" class="cluster"><title>cluster_\interfaces\http</title>
<path fill="none" stroke="gray" d="M36,-1916C36,-1916 593,-1916 593,-1916 599,-1916 605,-1922 605,-1928 605,-1928 605,-2138 605,-2138 605,-2144 599,-2150 593,-2150 593,-2150 36,-2150 36,-2150 30,-2150 24,-2144 24,-2138 24,-2138 24,-1928 24,-1928 24,-1922 30,-1916 36,-1916"/>
<text text-anchor="middle" x="314.5" y="-2137.2" font-family="Times New Roman,serif" font-size="11.00" fill="gray">http</text>
</g>
<g id="clust12" class="cluster"><title>cluster_\traits</title>
<path fill="none" stroke="gray" d="M917,-214C917,-214 1040,-214 1040,-214 1046,-214 1052,-220 1052,-226 1052,-226 1052,-436 1052,-436 1052,-442 1046,-448 1040,-448 1040,-448 917,-448 917,-448 911,-448 905,-442 905,-436 905,-436 905,-226 905,-226 905,-220 911,-214 917,-214"/>
<text text-anchor="middle" x="978.5" y="-435.2" font-family="Times New Roman,serif" font-size="11.00" fill="gray">traits</text>
</g>
<g id="clust13" class="cluster"><title>cluster_\abstracts</title>
<path fill="none" stroke="gray" d="M673,-1808C673,-1808 803,-1808 803,-1808 809,-1808 815,-1814 815,-1820 815,-1820 815,-2156 815,-2156 815,-2162 809,-2168 803,-2168 803,-2168 673,-2168 673,-2168 667,-2168 661,-2162 661,-2156 661,-2156 661,-1820 661,-1820 661,-1814 667,-1808 673,-1808"/>
<text text-anchor="middle" x="738" y="-2155.2" font-family="Times New Roman,serif" font-size="11.00" fill="gray">abstracts</text>
</g>
<g id="clust14" class="cluster"><title>cluster_\abstracts\designPatterns</title>
<path fill="none" stroke="gray" d="M690,-1916C690,-1916 786,-1916 786,-1916 792,-1916 798,-1922 798,-1928 798,-1928 798,-2084 798,-2084 798,-2090 792,-2096 786,-2096 786,-2096 690,-2096 690,-2096 684,-2096 678,-2090 678,-2084 678,-2084 678,-1928 678,-1928 678,-1922 684,-1916 690,-1916"/>
<text text-anchor="middle" x="738" y="-2083.2" font-family="Times New Roman,serif" font-size="11.00" fill="gray">designPatterns</text>
</g>
<!-- \\classes\\entitiesManager\\UserEntityManager -->
<g id="node1" class="node"><title>\\classes\\entitiesManager\\UserEntityManager</title>
<polygon fill="none" stroke="black" points="1044,-1556 913,-1556 913,-1520 1044,-1520 1044,-1556"/>
<text text-anchor="middle" x="978.5" y="-1535.2" font-family="Courier,monospace" font-size="11.00">UserEntityManager</text>
</g>
<!-- \\abstracts\\designPatterns\\EntityManager -->
<g id="node38" class="node"><title>\\abstracts\\designPatterns\\EntityManager</title>
<polygon fill="none" stroke="black" points="790,-2068 686,-2068 686,-2032 790,-2032 790,-2068"/>
<text text-anchor="start" x="704" y="-2053.2" font-family="Courier,monospace" font-size="11.00">«abstract»</text>
<text text-anchor="start" x="694" y="-2041.2" font-family="Courier,monospace" font-size="11.00">EntityManager</text>
</g>
<!-- \\classes\\entitiesManager\\UserEntityManager&#45;&gt;\\abstracts\\designPatterns\\EntityManager -->
<g id="edge1" class="edge"><title>\\classes\\entitiesManager\\UserEntityManager&#45;&gt;\\abstracts\\designPatterns\\EntityManager</title>
<path fill="none" stroke="black" d="M912.949,-1555.96C896.942,-1563.39 881.408,-1573.72 871,-1588 756.167,-1745.51 937.378,-1871.27 815,-2023 810.688,-2028.35 805.239,-2032.63 799.247,-2036.07"/>
<polygon fill="none" stroke="black" points="797.588,-2032.99 790.147,-2040.53 800.667,-2039.28 797.588,-2032.99"/>
</g>
<!-- \\classes\\entitiesManager\\UsersRightsEntityManager -->
<g id="node2" class="node"><title>\\classes\\entitiesManager\\UsersRightsEntityManager</title>
<polygon fill="none" stroke="black" points="1068,-1502 889,-1502 889,-1466 1068,-1466 1068,-1502"/>
<text text-anchor="middle" x="978.5" y="-1481.2" font-family="Courier,monospace" font-size="11.00">UsersRightsEntityManager</text>
</g>
<!-- \\classes\\entitiesManager\\UsersRightsEntityManager&#45;&gt;\\abstracts\\designPatterns\\EntityManager -->
<g id="edge17" class="edge"><title>\\classes\\entitiesManager\\UsersRightsEntityManager&#45;&gt;\\abstracts\\designPatterns\\EntityManager</title>
<path fill="none" stroke="black" d="M888.929,-1496.79C882.2,-1500.51 876.069,-1505.17 871,-1511 720.796,-1683.74 957.006,-1843.46 815,-2023 810.74,-2028.39 805.322,-2032.7 799.347,-2036.15"/>
<polygon fill="none" stroke="black" points="797.691,-2033.07 790.264,-2040.62 800.782,-2039.35 797.691,-2033.07"/>
</g>
<!-- \\classes\\entitiesManager\\UserStatisticsEntityManager -->
<g id="node3" class="node"><title>\\classes\\entitiesManager\\UserStatisticsEntityManager</title>
<polygon fill="none" stroke="black" points="1078,-1448 879,-1448 879,-1412 1078,-1412 1078,-1448"/>
<text text-anchor="middle" x="978.5" y="-1427.2" font-family="Courier,monospace" font-size="11.00">UserStatisticsEntityManager</text>
</g>
<!-- \\classes\\entitiesManager\\UserStatisticsEntityManager&#45;&gt;\\abstracts\\designPatterns\\EntityManager -->
<g id="edge18" class="edge"><title>\\classes\\entitiesManager\\UserStatisticsEntityManager&#45;&gt;\\abstracts\\designPatterns\\EntityManager</title>
<path fill="none" stroke="black" d="M880.536,-1448.12C877.069,-1450.73 873.862,-1453.67 871,-1457 788.56,-1552.8 892.895,-1923.46 815,-2023 810.767,-2028.41 805.367,-2032.74 799.402,-2036.2"/>
<polygon fill="none" stroke="black" points="797.746,-2033.11 790.328,-2040.67 800.844,-2039.39 797.746,-2033.11"/>
</g>
<!-- \\classes\\entitiesManager\\GlobalEntityManager -->
<g id="node4" class="node"><title>\\classes\\entitiesManager\\GlobalEntityManager</title>
<polygon fill="none" stroke="black" points="1051,-1394 906,-1394 906,-1358 1051,-1358 1051,-1394"/>
<text text-anchor="middle" x="978.5" y="-1373.2" font-family="Courier,monospace" font-size="11.00">GlobalEntityManager</text>
</g>
<!-- \\classes\\entitiesManager\\GlobalEntityManager&#45;&gt;\\abstracts\\designPatterns\\EntityManager -->
<g id="edge19" class="edge"><title>\\classes\\entitiesManager\\GlobalEntityManager&#45;&gt;\\abstracts\\designPatterns\\EntityManager</title>
<path fill="none" stroke="black" d="M905.895,-1381.43C892.58,-1385.66 880.037,-1392.41 871,-1403 781.216,-1508.24 899.791,-1913.69 815,-2023 810.791,-2028.43 805.404,-2032.76 799.447,-2036.23"/>
<polygon fill="none" stroke="black" points="797.793,-2033.15 790.38,-2040.72 800.896,-2039.42 797.793,-2033.15"/>
</g>
<!-- \\classes\\logger\\LogLevel -->
<g id="node5" class="node"><title>\\classes\\logger\\LogLevel</title>
<polygon fill="none" stroke="black" points="1014,-1744 943,-1744 943,-1708 1014,-1708 1014,-1744"/>
<text text-anchor="middle" x="978.5" y="-1723.2" font-family="Courier,monospace" font-size="11.00">LogLevel</text>
</g>
<!-- \\classes\\logger\\ConsoleLogger -->
<g id="node6" class="node"><title>\\classes\\logger\\ConsoleLogger</title>
<polygon fill="none" stroke="black" points="1030.5,-1690 926.5,-1690 926.5,-1654 1030.5,-1654 1030.5,-1690"/>
<text text-anchor="middle" x="978.5" y="-1669.2" font-family="Courier,monospace" font-size="11.00">ConsoleLogger</text>
</g>
<!-- \\abstracts\\AbstractLogger -->
<g id="node39" class="node"><title>\\abstracts\\AbstractLogger</title>
<polygon fill="none" stroke="black" points="793.5,-2140 682.5,-2140 682.5,-2104 793.5,-2104 793.5,-2140"/>
<text text-anchor="start" x="704" y="-2125.2" font-family="Courier,monospace" font-size="11.00">«abstract»</text>
<text text-anchor="start" x="690.5" y="-2113.2" font-family="Courier,monospace" font-size="11.00">AbstractLogger</text>
</g>
<!-- \\classes\\logger\\ConsoleLogger&#45;&gt;\\abstracts\\AbstractLogger -->
<g id="edge7" class="edge"><title>\\classes\\logger\\ConsoleLogger&#45;&gt;\\abstracts\\AbstractLogger</title>
<path fill="none" stroke="black" d="M926.48,-1673.12C906.438,-1676.26 884.938,-1683.44 871,-1699 750.911,-1833.02 932.828,-1963.99 815,-2100 811.547,-2103.99 807.421,-2107.27 802.9,-2109.98"/>
<polygon fill="none" stroke="black" points="801.197,-2106.91 793.795,-2114.49 804.309,-2113.18 801.197,-2106.91"/>
</g>
<!-- \\classes\\logger\\FileLogger -->
<g id="node7" class="node"><title>\\classes\\logger\\FileLogger</title>
<polygon fill="none" stroke="black" points="1020.5,-1636 936.5,-1636 936.5,-1600 1020.5,-1600 1020.5,-1636"/>
<text text-anchor="middle" x="978.5" y="-1615.2" font-family="Courier,monospace" font-size="11.00">FileLogger</text>
</g>
<!-- \\classes\\logger\\FileLogger&#45;&gt;\\abstracts\\AbstractLogger -->
<g id="edge12" class="edge"><title>\\classes\\logger\\FileLogger&#45;&gt;\\abstracts\\AbstractLogger</title>
<path fill="none" stroke="black" d="M936.359,-1617.76C913.77,-1619.93 887.145,-1626.68 871,-1645 736.272,-1797.84 947.151,-1944.92 815,-2100 811.525,-2104.08 807.346,-2107.42 802.756,-2110.17"/>
<polygon fill="none" stroke="black" points="800.923,-2107.17 793.503,-2114.73 804.02,-2113.44 800.923,-2107.17"/>
</g>
<!-- \\classes\\websocket\\services\\ChatService -->
<g id="node8" class="node"><title>\\classes\\websocket\\services\\ChatService</title>
<polygon fill="none" stroke="black" points="1024,-884 933,-884 933,-848 1024,-848 1024,-884"/>
<text text-anchor="middle" x="978.5" y="-863.2" font-family="Courier,monospace" font-size="11.00">ChatService</text>
</g>
<!-- \\classes\\websocket\\Server -->
<g id="node9" class="node"><title>\\classes\\websocket\\Server</title>
<polygon fill="none" stroke="black" points="766.5,-884 709.5,-884 709.5,-848 766.5,-848 766.5,-884"/>
<text text-anchor="middle" x="738" y="-863.2" font-family="Courier,monospace" font-size="11.00">Server</text>
</g>
<!-- \\classes\\websocket\\services\\ChatService&#45;&gt;\\classes\\websocket\\Server -->
<g id="edge2" class="edge"><title>\\classes\\websocket\\services\\ChatService&#45;&gt;\\classes\\websocket\\Server</title>
<path fill="none" stroke="black" d="M932.92,-866C887.926,-866 819.202,-866 776.796,-866"/>
<polygon fill="none" stroke="black" points="776.613,-862.5 766.613,-866 776.613,-869.5 776.613,-862.5"/>
</g>
<!-- \\interfaces\\ServiceInterface -->
<g id="node30" class="node"><title>\\interfaces\\ServiceInterface</title>
<polygon fill="none" stroke="black" points="577,-1906 452,-1906 452,-1870 577,-1870 577,-1906"/>
<text text-anchor="middle" x="514.5" y="-1885.2" font-family="Courier,monospace" font-size="11.00">ServiceInterface</text>
</g>
<!-- \\classes\\websocket\\services\\ChatService&#45;&gt;\\interfaces\\ServiceInterface -->
<g id="edge3" class="edge"><title>\\classes\\websocket\\services\\ChatService&#45;&gt;\\interfaces\\ServiceInterface</title>
<path fill="none" stroke="black" stroke-dasharray="1,5" d="M937.343,-884.111C913.585,-897.132 885.402,-917.136 871,-944 806.464,-1064.38 913.756,-2077.64 815,-2172 765.512,-2219.28 713.608,-2215.78 661,-2172 570.681,-2096.83 693.613,-1997.5 613,-1912 605.795,-1904.36 596.582,-1898.98 586.704,-1895.23"/>
<polygon fill="none" stroke="black" points="587.666,-1891.87 577.074,-1892.11 585.508,-1898.53 587.666,-1891.87"/>
</g>
<!-- \\classes\\console\\Console -->
<g id="node10" class="node"><title>\\classes\\console\\Console</title>
<polygon fill="none" stroke="black" points="1010.5,-1234 946.5,-1234 946.5,-1198 1010.5,-1198 1010.5,-1234"/>
<text text-anchor="middle" x="978.5" y="-1213.2" font-family="Courier,monospace" font-size="11.00">Console</text>
</g>
<!-- \\classes\\console\\ConsoleColors -->
<g id="node11" class="node"><title>\\classes\\console\\ConsoleColors</title>
<polygon fill="none" stroke="black" points="1030.5,-1180 926.5,-1180 926.5,-1144 1030.5,-1144 1030.5,-1180"/>
<text text-anchor="middle" x="978.5" y="-1159.2" font-family="Courier,monospace" font-size="11.00">ConsoleColors</text>
</g>
<!-- \\classes\\entities\\UsersRights -->
<g id="node12" class="node"><title>\\classes\\entities\\UsersRights</title>
<polygon fill="none" stroke="black" points="1024,-1100 933,-1100 933,-1064 1024,-1064 1024,-1100"/>
<text text-anchor="middle" x="978.5" y="-1079.2" font-family="Courier,monospace" font-size="11.00">UsersRights</text>
</g>
<!-- \\abstracts\\designPatterns\\Entity -->
<g id="node37" class="node"><title>\\abstracts\\designPatterns\\Entity</title>
<polygon fill="none" stroke="black" points="780,-1960 696,-1960 696,-1924 780,-1924 780,-1960"/>
<text text-anchor="start" x="704" y="-1945.2" font-family="Courier,monospace" font-size="11.00">«abstract»</text>
<text text-anchor="start" x="717.5" y="-1933.2" font-family="Courier,monospace" font-size="11.00">Entity</text>
</g>
<!-- \\classes\\entities\\UsersRights&#45;&gt;\\abstracts\\designPatterns\\Entity -->
<g id="edge5" class="edge"><title>\\classes\\entities\\UsersRights&#45;&gt;\\abstracts\\designPatterns\\Entity</title>
<path fill="none" stroke="black" d="M932.914,-1091.6C910.56,-1098.83 885.273,-1111.2 871,-1132 771.672,-1276.75 925.384,-1783.49 815,-1920 808.587,-1927.93 799.501,-1933.11 789.831,-1936.47"/>
<polygon fill="none" stroke="black" points="788.704,-1933.15 780.045,-1939.26 790.621,-1939.88 788.704,-1933.15"/>
</g>
<!-- \\classes\\entities\\UserStatistics -->
<g id="node13" class="node"><title>\\classes\\entities\\UserStatistics</title>
<polygon fill="none" stroke="black" points="1034,-1046 923,-1046 923,-1010 1034,-1010 1034,-1046"/>
<text text-anchor="middle" x="978.5" y="-1025.2" font-family="Courier,monospace" font-size="11.00">UserStatistics</text>
</g>
<!-- \\classes\\entities\\UserStatistics&#45;&gt;\\abstracts\\designPatterns\\Entity -->
<g id="edge6" class="edge"><title>\\classes\\entities\\UserStatistics&#45;&gt;\\abstracts\\designPatterns\\Entity</title>
<path fill="none" stroke="black" d="M922.862,-1029.12C903.636,-1032.43 883.682,-1039.75 871,-1055 747.856,-1203.12 935.647,-1769.84 815,-1920 808.612,-1927.95 799.536,-1933.14 789.869,-1936.5"/>
<polygon fill="none" stroke="black" points="788.742,-1933.18 780.083,-1939.29 790.659,-1939.92 788.742,-1933.18"/>
</g>
<!-- \\classes\\entities\\User -->
<g id="node14" class="node"><title>\\classes\\entities\\User</title>
<polygon fill="none" stroke="black" points="1005.5,-992 951.5,-992 951.5,-956 1005.5,-956 1005.5,-992"/>
<text text-anchor="middle" x="978.5" y="-971.2" font-family="Courier,monospace" font-size="11.00">User</text>
</g>
<!-- \\classes\\entities\\User&#45;&gt;\\abstracts\\designPatterns\\Entity -->
<g id="edge8" class="edge"><title>\\classes\\entities\\User&#45;&gt;\\abstracts\\designPatterns\\Entity</title>
<path fill="none" stroke="black" d="M951.079,-972.636C926.286,-972.944 890.223,-977.789 871,-1001 740.498,-1158.58 942.845,-1760.26 815,-1920 808.627,-1927.96 799.558,-1933.16 789.892,-1936.52"/>
<polygon fill="none" stroke="black" points="788.765,-1933.2 780.105,-1939.31 790.682,-1939.93 788.765,-1933.2"/>
</g>
<!-- \\classes\\entitiesCollection\\UserCollection -->
<g id="node15" class="node"><title>\\classes\\entitiesCollection\\UserCollection</title>
<polygon fill="none" stroke="black" points="1034,-1314 923,-1314 923,-1278 1034,-1278 1034,-1314"/>
<text text-anchor="middle" x="978.5" y="-1293.2" font-family="Courier,monospace" font-size="11.00">UserCollection</text>
</g>
<!-- \\abstracts\\designPatterns\\Collection -->
<g id="node36" class="node"><title>\\abstracts\\designPatterns\\Collection</title>
<polygon fill="none" stroke="black" points="780,-2014 696,-2014 696,-1978 780,-1978 780,-2014"/>
<text text-anchor="start" x="704" y="-1999.2" font-family="Courier,monospace" font-size="11.00">«abstract»</text>
<text text-anchor="start" x="704" y="-1987.2" font-family="Courier,monospace" font-size="11.00">Collection</text>
</g>
<!-- \\classes\\entitiesCollection\\UserCollection&#45;&gt;\\abstracts\\designPatterns\\Collection -->
<g id="edge10" class="edge"><title>\\classes\\entitiesCollection\\UserCollection&#45;&gt;\\abstracts\\designPatterns\\Collection</title>
<path fill="none" stroke="black" d="M922.89,-1309.33C903.426,-1316.86 883.3,-1328.43 871,-1346 791.284,-1459.87 900.175,-1859.15 815,-1969 808.563,-1977.3 799.372,-1983.06 789.593,-1987.04"/>
<polygon fill="none" stroke="black" points="788.399,-1983.75 780.109,-1990.35 790.704,-1990.36 788.399,-1983.75"/>
</g>
<!-- \\classes\\LoggerManager -->
<g id="node16" class="node"><title>\\classes\\LoggerManager</title>
<polygon fill="none" stroke="black" points="1030.5,-824 926.5,-824 926.5,-788 1030.5,-788 1030.5,-824"/>
<text text-anchor="middle" x="978.5" y="-803.2" font-family="Courier,monospace" font-size="11.00">LoggerManager</text>
</g>
<!-- \\classes\\ExceptionManager -->
<g id="node17" class="node"><title>\\classes\\ExceptionManager</title>
<polygon fill="none" stroke="black" points="1041,-770 916,-770 916,-734 1041,-734 1041,-770"/>
<text text-anchor="middle" x="978.5" y="-749.2" font-family="Courier,monospace" font-size="11.00">ExceptionManager</text>
</g>
<!-- \\Exception -->
<g id="node42" class="node"><title>\\Exception</title>
<ellipse fill="none" stroke="black" cx="738" cy="-180" rx="50.0912" ry="18"/>
<text text-anchor="middle" x="738" y="-176.3" font-family="Times New Roman,serif" font-size="14.00" fill="gray">\Exception</text>
</g>
<!-- \\classes\\ExceptionManager&#45;&gt;\\Exception -->
<g id="edge4" class="edge"><title>\\classes\\ExceptionManager&#45;&gt;\\Exception</title>
<path fill="none" stroke="black" d="M915.909,-747.928C899.45,-744.008 882.94,-737.068 871,-725 796.513,-649.714 753.292,-308.736 741.995,-208.065"/>
<polygon fill="none" stroke="black" points="745.464,-207.597 740.887,-198.042 738.507,-208.366 745.464,-207.597"/>
</g>
<!-- \\classes\\PDOStatementCustom -->
<g id="node18" class="node"><title>\\classes\\PDOStatementCustom</title>
<polygon fill="none" stroke="black" points="1047.5,-716 909.5,-716 909.5,-680 1047.5,-680 1047.5,-716"/>
<text text-anchor="middle" x="978.5" y="-695.2" font-family="Courier,monospace" font-size="11.00">PDOStatementCustom</text>
</g>
<!-- \\PDOStatement -->
<g id="node43" class="node"><title>\\PDOStatement</title>
<ellipse fill="none" stroke="black" cx="738" cy="-126" rx="67.6881" ry="18"/>
<text text-anchor="middle" x="738" y="-122.3" font-family="Times New Roman,serif" font-size="14.00" fill="gray">\PDOStatement</text>
</g>
<!-- \\classes\\PDOStatementCustom&#45;&gt;\\PDOStatement -->
<g id="edge9" class="edge"><title>\\classes\\PDOStatementCustom&#45;&gt;\\PDOStatement</title>
<path fill="none" stroke="black" d="M909.336,-693.443C894.805,-689.304 880.881,-682.377 871,-671 719.166,-496.163 958.537,-334.711 815,-153 811.33,-148.354 806.799,-144.507 801.792,-141.32"/>
<polygon fill="none" stroke="black" points="803.445,-138.235 792.984,-136.557 800.116,-144.392 803.445,-138.235"/>
</g>
<!-- \\classes\\Benchmark -->
<g id="node19" class="node"><title>\\classes\\Benchmark</title>
<polygon fill="none" stroke="black" points="1017,-662 940,-662 940,-626 1017,-626 1017,-662"/>
<text text-anchor="middle" x="978.5" y="-641.2" font-family="Courier,monospace" font-size="11.00">Benchmark</text>
</g>
<!-- \\classes\\DataBase -->
<g id="node20" class="node"><title>\\classes\\DataBase</title>
<polygon fill="none" stroke="black" points="1014,-608 943,-608 943,-572 1014,-572 1014,-608"/>
<text text-anchor="middle" x="978.5" y="-587.2" font-family="Courier,monospace" font-size="11.00">DataBase</text>
</g>
<!-- \\classes\\IniManager -->
<g id="node21" class="node"><title>\\classes\\IniManager</title>
<polygon fill="none" stroke="black" points="1020.5,-554 936.5,-554 936.5,-518 1020.5,-518 1020.5,-554"/>
<text text-anchor="middle" x="978.5" y="-533.2" font-family="Courier,monospace" font-size="11.00">IniManager</text>
</g>
<!-- \\classes\\ImagesManager -->
<g id="node22" class="node"><title>\\classes\\ImagesManager</title>
<polygon fill="none" stroke="black" points="1030.5,-500 926.5,-500 926.5,-464 1030.5,-464 1030.5,-500"/>
<text text-anchor="middle" x="978.5" y="-479.2" font-family="Courier,monospace" font-size="11.00">ImagesManager</text>
</g>
<!-- \\interfaces\\http\\ServerRequestInterface -->
<g id="node23" class="node"><title>\\interfaces\\http\\ServerRequestInterface</title>
<polygon fill="none" stroke="black" points="597,-2122 432,-2122 432,-2086 597,-2086 597,-2122"/>
<text text-anchor="middle" x="514.5" y="-2101.2" font-family="Courier,monospace" font-size="11.00">ServerRequestInterface</text>
</g>
<!-- \\interfaces\\http\\RequestInterface -->
<g id="node24" class="node"><title>\\interfaces\\http\\RequestInterface</title>
<polygon fill="none" stroke="black" points="357,-2122 232,-2122 232,-2086 357,-2086 357,-2122"/>
<text text-anchor="middle" x="294.5" y="-2101.2" font-family="Courier,monospace" font-size="11.00">RequestInterface</text>
</g>
<!-- \\interfaces\\http\\ServerRequestInterface&#45;&gt;\\interfaces\\http\\RequestInterface -->
<g id="edge20" class="edge"><title>\\interfaces\\http\\ServerRequestInterface&#45;&gt;\\interfaces\\http\\RequestInterface</title>
<path fill="none" stroke="black" d="M431.705,-2104C410.62,-2104 388.085,-2104 367.537,-2104"/>
<polygon fill="none" stroke="black" points="367.31,-2100.5 357.31,-2104 367.31,-2107.5 367.31,-2100.5"/>
</g>
<!-- \\interfaces\\http\\MessageInterface -->
<g id="node29" class="node"><title>\\interfaces\\http\\MessageInterface</title>
<polygon fill="none" stroke="black" points="157,-2095 32,-2095 32,-2059 157,-2059 157,-2095"/>
<text text-anchor="middle" x="94.5" y="-2074.2" font-family="Courier,monospace" font-size="11.00">MessageInterface</text>
</g>
<!-- \\interfaces\\http\\RequestInterface&#45;&gt;\\interfaces\\http\\MessageInterface -->
<g id="edge21" class="edge"><title>\\interfaces\\http\\RequestInterface&#45;&gt;\\interfaces\\http\\MessageInterface</title>
<path fill="none" stroke="black" d="M231.937,-2095.61C211.357,-2092.8 188.245,-2089.65 166.975,-2086.75"/>
<polygon fill="none" stroke="black" points="167.406,-2083.27 157.025,-2085.39 166.46,-2090.21 167.406,-2083.27"/>
</g>
<!-- \\interfaces\\http\\ResponseInterface -->
<g id="node25" class="node"><title>\\interfaces\\http\\ResponseInterface</title>
<polygon fill="none" stroke="black" points="360,-2068 229,-2068 229,-2032 360,-2032 360,-2068"/>
<text text-anchor="middle" x="294.5" y="-2047.2" font-family="Courier,monospace" font-size="11.00">ResponseInterface</text>
</g>
<!-- \\interfaces\\http\\ResponseInterface&#45;&gt;\\interfaces\\http\\MessageInterface -->
<g id="edge22" class="edge"><title>\\interfaces\\http\\ResponseInterface&#45;&gt;\\interfaces\\http\\MessageInterface</title>
<path fill="none" stroke="black" d="M228.941,-2058.8C209.247,-2061.49 187.475,-2064.46 167.33,-2067.2"/>
<polygon fill="none" stroke="black" points="166.712,-2063.76 157.277,-2068.58 167.658,-2070.69 166.712,-2063.76"/>
</g>
<!-- \\interfaces\\http\\UploadedFileInterface -->
<g id="node26" class="node"><title>\\interfaces\\http\\UploadedFileInterface</title>
<polygon fill="none" stroke="black" points="593.5,-2068 435.5,-2068 435.5,-2032 593.5,-2032 593.5,-2068"/>
<text text-anchor="middle" x="514.5" y="-2047.2" font-family="Courier,monospace" font-size="11.00">UploadedFileInterface</text>
</g>
<!-- \\interfaces\\http\\StreamInterface -->
<g id="node27" class="node"><title>\\interfaces\\http\\StreamInterface</title>
<polygon fill="none" stroke="black" points="573.5,-2014 455.5,-2014 455.5,-1978 573.5,-1978 573.5,-2014"/>
<text text-anchor="middle" x="514.5" y="-1993.2" font-family="Courier,monospace" font-size="11.00">StreamInterface</text>
</g>
<!-- \\interfaces\\http\\UriInterface -->
<g id="node28" class="node"><title>\\interfaces\\http\\UriInterface</title>
<polygon fill="none" stroke="black" points="563.5,-1960 465.5,-1960 465.5,-1924 563.5,-1924 563.5,-1960"/>
<text text-anchor="middle" x="514.5" y="-1939.2" font-family="Courier,monospace" font-size="11.00">UriInterface</text>
</g>
<!-- \\interfaces\\LoggerInterface -->
<g id="node31" class="node"><title>\\interfaces\\LoggerInterface</title>
<polygon fill="none" stroke="black" points="573.5,-1852 455.5,-1852 455.5,-1816 573.5,-1816 573.5,-1852"/>
<text text-anchor="middle" x="514.5" y="-1831.2" font-family="Courier,monospace" font-size="11.00">LoggerInterface</text>
</g>
<!-- \\traits\\FiltersTrait -->
<g id="node32" class="node"><title>\\traits\\FiltersTrait</title>
<polygon fill="none" stroke="black" points="1027.5,-420 929.5,-420 929.5,-384 1027.5,-384 1027.5,-420"/>
<text text-anchor="middle" x="978.5" y="-399.2" font-family="Courier,monospace" font-size="11.00">FiltersTrait</text>
</g>
<!-- \\traits\\PrettyOutputTrait -->
<g id="node33" class="node"><title>\\traits\\PrettyOutputTrait</title>
<polygon fill="none" stroke="black" points="1044,-366 913,-366 913,-330 1044,-330 1044,-366"/>
<text text-anchor="middle" x="978.5" y="-345.2" font-family="Courier,monospace" font-size="11.00">PrettyOutputTrait</text>
</g>
<!-- \\traits\\EchoTrait -->
<g id="node34" class="node"><title>\\traits\\EchoTrait</title>
<polygon fill="none" stroke="black" points="1017,-312 940,-312 940,-276 1017,-276 1017,-312"/>
<text text-anchor="middle" x="978.5" y="-291.2" font-family="Courier,monospace" font-size="11.00">EchoTrait</text>
</g>
<!-- \\traits\\ShortcutsTrait -->
<g id="node35" class="node"><title>\\traits\\ShortcutsTrait</title>
<polygon fill="none" stroke="black" points="1034,-258 923,-258 923,-222 1034,-222 1034,-258"/>
<text text-anchor="middle" x="978.5" y="-237.2" font-family="Courier,monospace" font-size="11.00">ShortcutsTrait</text>
</g>
<!-- \\Iterator -->
<g id="node44" class="node"><title>\\Iterator</title>
<ellipse fill="none" stroke="black" cx="514.5" cy="-180" rx="39.7935" ry="18"/>
<text text-anchor="middle" x="514.5" y="-176.3" font-family="Times New Roman,serif" font-size="14.00" fill="gray">\Iterator</text>
</g>
<!-- \\abstracts\\designPatterns\\Collection&#45;&gt;\\Iterator -->
<g id="edge13" class="edge"><title>\\abstracts\\designPatterns\\Collection&#45;&gt;\\Iterator</title>
<path fill="none" stroke="black" stroke-dasharray="1,5" d="M695.839,-1990.39C682.727,-1986.52 669.448,-1979.99 661,-1969 604.86,-1895.96 528.265,-430.945 516.926,-208.267"/>
<polygon fill="none" stroke="black" points="520.41,-207.874 516.408,-198.064 513.419,-208.229 520.41,-207.874"/>
</g>
<!-- \\ArrayAccess -->
<g id="node45" class="node"><title>\\ArrayAccess</title>
<ellipse fill="none" stroke="black" cx="514.5" cy="-126" rx="60.3893" ry="18"/>
<text text-anchor="middle" x="514.5" y="-122.3" font-family="Times New Roman,serif" font-size="14.00" fill="gray">\ArrayAccess</text>
</g>
<!-- \\abstracts\\designPatterns\\Collection&#45;&gt;\\ArrayAccess -->
<g id="edge14" class="edge"><title>\\abstracts\\designPatterns\\Collection&#45;&gt;\\ArrayAccess</title>
<path fill="none" stroke="black" stroke-dasharray="1,5" d="M695.894,-1990.76C682.622,-1986.93 669.226,-1980.33 661,-1969 542.42,-1805.66 737.319,-312.02 613,-153 605.52,-143.433 594.969,-137.064 583.551,-132.864"/>
<polygon fill="none" stroke="black" points="584.392,-129.46 573.804,-129.823 582.308,-136.142 584.392,-129.46"/>
</g>
<!-- \\Countable -->
<g id="node46" class="node"><title>\\Countable</title>
<ellipse fill="none" stroke="black" cx="514.5" cy="-72" rx="50.0912" ry="18"/>
<text text-anchor="middle" x="514.5" y="-68.3" font-family="Times New Roman,serif" font-size="14.00" fill="gray">\Countable</text>
</g>
<!-- \\abstracts\\designPatterns\\Collection&#45;&gt;\\Countable -->
<g id="edge15" class="edge"><title>\\abstracts\\designPatterns\\Collection&#45;&gt;\\Countable</title>
<path fill="none" stroke="black" stroke-dasharray="1,5" d="M695.889,-1990.77C682.617,-1986.93 669.222,-1980.33 661,-1969 538.96,-1800.76 740.951,-262.794 613,-99 603.509,-86.8508 589.065,-79.8587 574.18,-75.9155"/>
<polygon fill="none" stroke="black" points="574.902,-72.4908 564.382,-73.7409 573.386,-79.3245 574.902,-72.4908"/>
</g>
<!-- \\SeekableIterator -->
<g id="node47" class="node"><title>\\SeekableIterator</title>
<ellipse fill="none" stroke="black" cx="514.5" cy="-18" rx="71.4873" ry="18"/>
<text text-anchor="middle" x="514.5" y="-14.3" font-family="Times New Roman,serif" font-size="14.00" fill="gray">\SeekableIterator</text>
</g>
<!-- \\abstracts\\designPatterns\\Collection&#45;&gt;\\SeekableIterator -->
<g id="edge16" class="edge"><title>\\abstracts\\designPatterns\\Collection&#45;&gt;\\SeekableIterator</title>
<path fill="none" stroke="black" stroke-dasharray="1,5" d="M695.885,-1990.77C682.612,-1986.94 669.218,-1980.34 661,-1969 535.501,-1795.85 744.583,-213.568 613,-45 607.285,-37.6792 599.772,-32.2308 591.447,-28.1935"/>
<polygon fill="none" stroke="black" points="592.72,-24.9324 582.141,-24.3446 590.044,-31.401 592.72,-24.9324"/>
</g>
<!-- \\abstracts\\AbstractLogger&#45;&gt;\\interfaces\\LoggerInterface -->
<g id="edge11" class="edge"><title>\\abstracts\\AbstractLogger&#45;&gt;\\interfaces\\LoggerInterface</title>
<path fill="none" stroke="black" stroke-dasharray="1,5" d="M682.147,-2114.05C674.196,-2110.79 666.765,-2106.27 661,-2100 587.657,-2020.26 686.805,-1940.32 613,-1861 604.914,-1852.31 594.303,-1846.33 583.064,-1842.23"/>
<polygon fill="none" stroke="black" points="584.106,-1838.89 573.516,-1839.21 581.995,-1845.56 584.106,-1838.89"/>
</g>
<!-- \\abstracts\\AbstractController -->
<g id="node40" class="node"><title>\\abstracts\\AbstractController</title>
<polygon fill="none" stroke="black" points="807,-1906 669,-1906 669,-1870 807,-1870 807,-1906"/>
<text text-anchor="start" x="704" y="-1891.2" font-family="Courier,monospace" font-size="11.00">«abstract»</text>
<text text-anchor="start" x="677" y="-1879.2" font-family="Courier,monospace" font-size="11.00">AbstractController</text>
</g>
<!-- \\abstracts\\API -->
<g id="node41" class="node"><title>\\abstracts\\API</title>
<polygon fill="none" stroke="black" points="780,-1852 696,-1852 696,-1816 780,-1816 780,-1852"/>
<text text-anchor="start" x="704" y="-1837.2" font-family="Courier,monospace" font-size="11.00">«abstract»</text>
<text text-anchor="start" x="727.5" y="-1825.2" font-family="Courier,monospace" font-size="11.00">API</text>
</g>
</g>
</svg>
