<?xml version="1.0" encoding="UTF-8" standalone="no"?>
<!DOCTYPE svg PUBLIC "-//W3C//DTD SVG 1.1//EN"
 "http://www.w3.org/Graphics/SVG/1.1/DTD/svg11.dtd">
<!-- Generated by graphviz version 2.38.0 (20140413.2041)
 -->
<!-- Title: G Pages: 1 -->
<svg width="1125pt" height="2332pt"
 viewBox="0.00 0.00 1125.00 2332.00" xmlns="http://www.w3.org/2000/svg" xmlns:xlink="http://www.w3.org/1999/xlink">
<g id="graph0" class="graph" transform="scale(1 1) rotate(0) translate(4 2328)">
<title>G</title>
<polygon fill="white" stroke="none" points="-4,4 -4,-2328 1121,-2328 1121,4 -4,4"/>
<g id="clust1" class="cluster"><title>cluster_Global</title>
<path fill="none" stroke="gray" d="M20,-206C20,-206 1097,-206 1097,-206 1103,-206 1109,-212 1109,-218 1109,-218 1109,-2304 1109,-2304 1109,-2310 1103,-2316 1097,-2316 1097,-2316 20,-2316 20,-2316 14,-2316 8,-2310 8,-2304 8,-2304 8,-218 8,-218 8,-212 14,-206 20,-206"/>
<text text-anchor="middle" x="558.5" y="-2303.2" font-family="Times New Roman,serif" font-size="11.00" fill="gray">Global</text>
</g>
<g id="clust2" class="cluster"><title>cluster_\classes</title>
<path fill="none" stroke="gray" d="M705.5,-456C705.5,-456 1089,-456 1089,-456 1095,-456 1101,-462 1101,-468 1101,-468 1101,-1898 1101,-1898 1101,-1904 1095,-1910 1089,-1910 1089,-1910 705.5,-1910 705.5,-1910 699.5,-1910 693.5,-1904 693.5,-1898 693.5,-1898 693.5,-468 693.5,-468 693.5,-462 699.5,-456 705.5,-456"/>
<text text-anchor="middle" x="897.25" y="-1897.2" font-family="Times New Roman,serif" font-size="11.00" fill="gray">classes</text>
</g>
<g id="clust4" class="cluster"><title>cluster_\classes\logger</title>
<path fill="none" stroke="gray" d="M934,-1702C934,-1702 1030,-1702 1030,-1702 1036,-1702 1042,-1708 1042,-1714 1042,-1714 1042,-1870 1042,-1870 1042,-1876 1036,-1882 1030,-1882 1030,-1882 934,-1882 934,-1882 928,-1882 922,-1876 922,-1870 922,-1870 922,-1714 922,-1714 922,-1708 928,-1702 934,-1702"/>
<text text-anchor="middle" x="982" y="-1869.2" font-family="Times New Roman,serif" font-size="11.00" fill="gray">logger</text>
</g>
<g id="clust5" class="cluster"><title>cluster_\classes\websocket</title>
<path fill="none" stroke="gray" d="M713.5,-968C713.5,-968 1031.5,-968 1031.5,-968 1037.5,-968 1043.5,-974 1043.5,-980 1043.5,-980 1043.5,-1064 1043.5,-1064 1043.5,-1070 1037.5,-1076 1031.5,-1076 1031.5,-1076 713.5,-1076 713.5,-1076 707.5,-1076 701.5,-1070 701.5,-1064 701.5,-1064 701.5,-980 701.5,-980 701.5,-974 707.5,-968 713.5,-968"/>
<text text-anchor="middle" x="872.5" y="-1063.2" font-family="Times New Roman,serif" font-size="11.00" fill="gray">websocket</text>
</g>
<g id="clust6" class="cluster"><title>cluster_\classes\websocket\services</title>
<path fill="none" stroke="gray" d="M940.5,-976C940.5,-976 1023.5,-976 1023.5,-976 1029.5,-976 1035.5,-982 1035.5,-988 1035.5,-988 1035.5,-1036 1035.5,-1036 1035.5,-1042 1029.5,-1048 1023.5,-1048 1023.5,-1048 940.5,-1048 940.5,-1048 934.5,-1048 928.5,-1042 928.5,-1036 928.5,-1036 928.5,-988 928.5,-988 928.5,-982 934.5,-976 940.5,-976"/>
<text text-anchor="middle" x="982" y="-1035.2" font-family="Times New Roman,serif" font-size="11.00" fill="gray">services</text>
</g>
<g id="clust3" class="cluster"><title>cluster_\classes\entitiesManager</title>
<path fill="none" stroke="gray" d="M883,-1406C883,-1406 1081,-1406 1081,-1406 1087,-1406 1093,-1412 1093,-1418 1093,-1418 1093,-1682 1093,-1682 1093,-1688 1087,-1694 1081,-1694 1081,-1694 883,-1694 883,-1694 877,-1694 871,-1688 871,-1682 871,-1682 871,-1418 871,-1418 871,-1412 877,-1406 883,-1406"/>
<text text-anchor="middle" x="982" y="-1681.2" font-family="Times New Roman,serif" font-size="11.00" fill="gray">entitiesManager</text>
</g>
<g id="clust9" class="cluster"><title>cluster_\classes\entitiesCollection</title>
<path fill="none" stroke="gray" d="M930.5,-1326C930.5,-1326 1033.5,-1326 1033.5,-1326 1039.5,-1326 1045.5,-1332 1045.5,-1338 1045.5,-1338 1045.5,-1386 1045.5,-1386 1045.5,-1392 1039.5,-1398 1033.5,-1398 1033.5,-1398 930.5,-1398 930.5,-1398 924.5,-1398 918.5,-1392 918.5,-1386 918.5,-1386 918.5,-1338 918.5,-1338 918.5,-1332 924.5,-1326 930.5,-1326"/>
<text text-anchor="middle" x="982" y="-1385.2" font-family="Times New Roman,serif" font-size="11.00" fill="gray">entitiesCollection</text>
</g>
<g id="clust8" class="cluster"><title>cluster_\classes\entities</title>
<path fill="none" stroke="gray" d="M927,-1084C927,-1084 1037,-1084 1037,-1084 1043,-1084 1049,-1090 1049,-1096 1049,-1096 1049,-1306 1049,-1306 1049,-1312 1043,-1318 1037,-1318 1037,-1318 927,-1318 927,-1318 921,-1318 915,-1312 915,-1306 915,-1306 915,-1096 915,-1096 915,-1090 921,-1084 927,-1084"/>
<text text-anchor="middle" x="982" y="-1305.2" font-family="Times New Roman,serif" font-size="11.00" fill="gray">entities</text>
</g>
<g id="clust7" class="cluster"><title>cluster_\classes\console</title>
<path fill="none" stroke="gray" d="M934,-834C934,-834 1030,-834 1030,-834 1036,-834 1042,-840 1042,-846 1042,-846 1042,-948 1042,-948 1042,-954 1036,-960 1030,-960 1030,-960 934,-960 934,-960 928,-960 922,-954 922,-948 922,-948 922,-846 922,-846 922,-840 928,-834 934,-834"/>
<text text-anchor="middle" x="982" y="-947.2" font-family="Times New Roman,serif" font-size="11.00" fill="gray">console</text>
</g>
<g id="clust10" class="cluster"><title>cluster_\interfaces</title>
<path fill="none" stroke="gray" d="M28,-1918C28,-1918 601,-1918 601,-1918 607,-1918 613,-1924 613,-1930 613,-1930 613,-2276 613,-2276 613,-2282 607,-2288 601,-2288 601,-2288 28,-2288 28,-2288 22,-2288 16,-2282 16,-2276 16,-2276 16,-1930 16,-1930 16,-1924 22,-1918 28,-1918"/>
<text text-anchor="middle" x="314.5" y="-2275.2" font-family="Times New Roman,serif" font-size="11.00" fill="gray">interfaces</text>
</g>
<g id="clust11" class="cluster"><title>cluster_\interfaces\http</title>
<path fill="none" stroke="gray" d="M36,-2026C36,-2026 593,-2026 593,-2026 599,-2026 605,-2032 605,-2038 605,-2038 605,-2248 605,-2248 605,-2254 599,-2260 593,-2260 593,-2260 36,-2260 36,-2260 30,-2260 24,-2254 24,-2248 24,-2248 24,-2038 24,-2038 24,-2032 30,-2026 36,-2026"/>
<text text-anchor="middle" x="314.5" y="-2247.2" font-family="Times New Roman,serif" font-size="11.00" fill="gray">http</text>
</g>
<g id="clust12" class="cluster"><title>cluster_\traits</title>
<path fill="none" stroke="gray" d="M920.5,-214C920.5,-214 1043.5,-214 1043.5,-214 1049.5,-214 1055.5,-220 1055.5,-226 1055.5,-226 1055.5,-436 1055.5,-436 1055.5,-442 1049.5,-448 1043.5,-448 1043.5,-448 920.5,-448 920.5,-448 914.5,-448 908.5,-442 908.5,-436 908.5,-436 908.5,-226 908.5,-226 908.5,-220 914.5,-214 920.5,-214"/>
<text text-anchor="middle" x="982" y="-435.2" font-family="Times New Roman,serif" font-size="11.00" fill="gray">traits</text>
</g>
<g id="clust13" class="cluster"><title>cluster_\abstracts</title>
<path fill="none" stroke="gray" d="M673,-1918C673,-1918 803,-1918 803,-1918 809,-1918 815,-1924 815,-1930 815,-1930 815,-2266 815,-2266 815,-2272 809,-2278 803,-2278 803,-2278 673,-2278 673,-2278 667,-2278 661,-2272 661,-2266 661,-2266 661,-1930 661,-1930 661,-1924 667,-1918 673,-1918"/>
<text text-anchor="middle" x="738" y="-2265.2" font-family="Times New Roman,serif" font-size="11.00" fill="gray">abstracts</text>
</g>
<g id="clust14" class="cluster"><title>cluster_\abstracts\designPatterns</title>
<path fill="none" stroke="gray" d="M690,-2026C690,-2026 786,-2026 786,-2026 792,-2026 798,-2032 798,-2038 798,-2038 798,-2194 798,-2194 798,-2200 792,-2206 786,-2206 786,-2206 690,-2206 690,-2206 684,-2206 678,-2200 678,-2194 678,-2194 678,-2038 678,-2038 678,-2032 684,-2026 690,-2026"/>
<text text-anchor="middle" x="738" y="-2193.2" font-family="Times New Roman,serif" font-size="11.00" fill="gray">designPatterns</text>
</g>
<!-- \\classes\\entitiesManager\\UserEntityManager -->
<g id="node1" class="node"><title>\\classes\\entitiesManager\\UserEntityManager</title>
<polygon fill="none" stroke="black" points="1047.5,-1666 916.5,-1666 916.5,-1630 1047.5,-1630 1047.5,-1666"/>
<text text-anchor="middle" x="982" y="-1645.2" font-family="Courier,monospace" font-size="11.00">UserEntityManager</text>
</g>
<!-- \\abstracts\\designPatterns\\EntityManager -->
<g id="node40" class="node"><title>\\abstracts\\designPatterns\\EntityManager</title>
<polygon fill="none" stroke="black" points="790,-2178 686,-2178 686,-2142 790,-2142 790,-2178"/>
<text text-anchor="start" x="704" y="-2163.2" font-family="Courier,monospace" font-size="11.00">«abstract»</text>
<text text-anchor="start" x="694" y="-2151.2" font-family="Courier,monospace" font-size="11.00">EntityManager</text>
</g>
<!-- \\classes\\entitiesManager\\UserEntityManager&#45;&gt;\\abstracts\\designPatterns\\EntityManager -->
<g id="edge1" class="edge"><title>\\classes\\entitiesManager\\UserEntityManager&#45;&gt;\\abstracts\\designPatterns\\EntityManager</title>
<path fill="none" stroke="black" d="M916.375,-1664.65C899.141,-1672.12 882.216,-1682.81 871,-1698 755.2,-1854.8 937.378,-1981.27 815,-2133 810.688,-2138.35 805.239,-2142.63 799.247,-2146.07"/>
<polygon fill="none" stroke="black" points="797.588,-2142.99 790.147,-2150.53 800.667,-2149.28 797.588,-2142.99"/>
</g>
<!-- \\classes\\entitiesManager\\UsersChatRightsEntityManager -->
<g id="node2" class="node"><title>\\classes\\entitiesManager\\UsersChatRightsEntityManager</title>
<polygon fill="none" stroke="black" points="1085,-1612 879,-1612 879,-1576 1085,-1576 1085,-1612"/>
<text text-anchor="middle" x="982" y="-1591.2" font-family="Courier,monospace" font-size="11.00">UsersChatRightsEntityManager</text>
</g>
<!-- \\classes\\entitiesManager\\UsersChatRightsEntityManager&#45;&gt;\\abstracts\\designPatterns\\EntityManager -->
<g id="edge13" class="edge"><title>\\classes\\entitiesManager\\UsersChatRightsEntityManager&#45;&gt;\\abstracts\\designPatterns\\EntityManager</title>
<path fill="none" stroke="black" d="M880.444,-1612.28C877.024,-1614.85 873.851,-1617.75 871,-1621 720.141,-1793.17 957.006,-1953.46 815,-2133 810.74,-2138.39 805.322,-2142.7 799.347,-2146.15"/>
<polygon fill="none" stroke="black" points="797.691,-2143.07 790.264,-2150.62 800.782,-2149.35 797.691,-2143.07"/>
</g>
<!-- \\classes\\entitiesManager\\UsersRightsEntityManager -->
<g id="node3" class="node"><title>\\classes\\entitiesManager\\UsersRightsEntityManager</title>
<polygon fill="none" stroke="black" points="1071.5,-1558 892.5,-1558 892.5,-1522 1071.5,-1522 1071.5,-1558"/>
<text text-anchor="middle" x="982" y="-1537.2" font-family="Courier,monospace" font-size="11.00">UsersRightsEntityManager</text>
</g>
<!-- \\classes\\entitiesManager\\UsersRightsEntityManager&#45;&gt;\\abstracts\\designPatterns\\EntityManager -->
<g id="edge19" class="edge"><title>\\classes\\entitiesManager\\UsersRightsEntityManager&#45;&gt;\\abstracts\\designPatterns\\EntityManager</title>
<path fill="none" stroke="black" d="M892.342,-1550.9C884.274,-1554.92 876.926,-1560.17 871,-1567 788.196,-1662.49 892.895,-2033.46 815,-2133 810.767,-2138.41 805.367,-2142.74 799.402,-2146.2"/>
<polygon fill="none" stroke="black" points="797.746,-2143.11 790.328,-2150.67 800.844,-2149.39 797.746,-2143.11"/>
</g>
<!-- \\classes\\entitiesManager\\UserStatisticsEntityManager -->
<g id="node4" class="node"><title>\\classes\\entitiesManager\\UserStatisticsEntityManager</title>
<polygon fill="none" stroke="black" points="1081.5,-1504 882.5,-1504 882.5,-1468 1081.5,-1468 1081.5,-1504"/>
<text text-anchor="middle" x="982" y="-1483.2" font-family="Courier,monospace" font-size="11.00">UserStatisticsEntityManager</text>
</g>
<!-- \\classes\\entitiesManager\\UserStatisticsEntityManager&#45;&gt;\\abstracts\\designPatterns\\EntityManager -->
<g id="edge20" class="edge"><title>\\classes\\entitiesManager\\UserStatisticsEntityManager&#45;&gt;\\abstracts\\designPatterns\\EntityManager</title>
<path fill="none" stroke="black" d="M882.244,-1502.83C878.124,-1505.76 874.333,-1509.12 871,-1513 780.817,-1617.9 899.791,-2023.69 815,-2133 810.791,-2138.43 805.404,-2142.76 799.447,-2146.23"/>
<polygon fill="none" stroke="black" points="797.793,-2143.15 790.38,-2150.72 800.896,-2149.42 797.793,-2143.15"/>
</g>
<!-- \\classes\\entitiesManager\\GlobalEntityManager -->
<g id="node5" class="node"><title>\\classes\\entitiesManager\\GlobalEntityManager</title>
<polygon fill="none" stroke="black" points="1054.5,-1450 909.5,-1450 909.5,-1414 1054.5,-1414 1054.5,-1450"/>
<text text-anchor="middle" x="982" y="-1429.2" font-family="Courier,monospace" font-size="11.00">GlobalEntityManager</text>
</g>
<!-- \\classes\\entitiesManager\\GlobalEntityManager&#45;&gt;\\abstracts\\designPatterns\\EntityManager -->
<g id="edge21" class="edge"><title>\\classes\\entitiesManager\\GlobalEntityManager&#45;&gt;\\abstracts\\designPatterns\\EntityManager</title>
<path fill="none" stroke="black" d="M909.285,-1436.25C894.697,-1440.45 880.829,-1447.48 871,-1459 773.433,-1573.32 906.692,-2013.92 815,-2133 810.753,-2138.52 805.289,-2142.91 799.24,-2146.4"/>
<polygon fill="none" stroke="black" points="797.476,-2143.37 790.035,-2150.91 800.555,-2149.66 797.476,-2143.37"/>
</g>
<!-- \\classes\\logger\\LogLevel -->
<g id="node6" class="node"><title>\\classes\\logger\\LogLevel</title>
<polygon fill="none" stroke="black" points="1017.5,-1854 946.5,-1854 946.5,-1818 1017.5,-1818 1017.5,-1854"/>
<text text-anchor="middle" x="982" y="-1833.2" font-family="Courier,monospace" font-size="11.00">LogLevel</text>
</g>
<!-- \\classes\\logger\\ConsoleLogger -->
<g id="node7" class="node"><title>\\classes\\logger\\ConsoleLogger</title>
<polygon fill="none" stroke="black" points="1034,-1800 930,-1800 930,-1764 1034,-1764 1034,-1800"/>
<text text-anchor="middle" x="982" y="-1779.2" font-family="Courier,monospace" font-size="11.00">ConsoleLogger</text>
</g>
<!-- \\abstracts\\AbstractLogger -->
<g id="node41" class="node"><title>\\abstracts\\AbstractLogger</title>
<polygon fill="none" stroke="black" points="793.5,-2250 682.5,-2250 682.5,-2214 793.5,-2214 793.5,-2250"/>
<text text-anchor="start" x="704" y="-2235.2" font-family="Courier,monospace" font-size="11.00">«abstract»</text>
<text text-anchor="start" x="690.5" y="-2223.2" font-family="Courier,monospace" font-size="11.00">AbstractLogger</text>
</g>
<!-- \\classes\\logger\\ConsoleLogger&#45;&gt;\\abstracts\\AbstractLogger -->
<g id="edge8" class="edge"><title>\\classes\\logger\\ConsoleLogger&#45;&gt;\\abstracts\\AbstractLogger</title>
<path fill="none" stroke="black" d="M929.751,-1782.5C908.659,-1785.44 885.76,-1792.65 871,-1809 750.403,-1942.56 932.828,-2073.99 815,-2210 811.547,-2213.99 807.421,-2217.27 802.9,-2219.98"/>
<polygon fill="none" stroke="black" points="801.197,-2216.91 793.795,-2224.49 804.309,-2223.18 801.197,-2216.91"/>
</g>
<!-- \\classes\\logger\\FileLogger -->
<g id="node8" class="node"><title>\\classes\\logger\\FileLogger</title>
<polygon fill="none" stroke="black" points="1024,-1746 940,-1746 940,-1710 1024,-1710 1024,-1746"/>
<text text-anchor="middle" x="982" y="-1725.2" font-family="Courier,monospace" font-size="11.00">FileLogger</text>
</g>
<!-- \\classes\\logger\\FileLogger&#45;&gt;\\abstracts\\AbstractLogger -->
<g id="edge14" class="edge"><title>\\classes\\logger\\FileLogger&#45;&gt;\\abstracts\\AbstractLogger</title>
<path fill="none" stroke="black" d="M939.898,-1727.27C916.294,-1729.17 888.042,-1735.81 871,-1755 735.692,-1907.33 947.151,-2054.92 815,-2210 811.525,-2214.08 807.346,-2217.42 802.756,-2220.17"/>
<polygon fill="none" stroke="black" points="800.923,-2217.17 793.503,-2224.73 804.02,-2223.44 800.923,-2217.17"/>
</g>
<!-- \\classes\\websocket\\services\\ChatService -->
<g id="node9" class="node"><title>\\classes\\websocket\\services\\ChatService</title>
<polygon fill="none" stroke="black" points="1027.5,-1020 936.5,-1020 936.5,-984 1027.5,-984 1027.5,-1020"/>
<text text-anchor="middle" x="982" y="-999.2" font-family="Courier,monospace" font-size="11.00">ChatService</text>
</g>
<!-- \\classes\\websocket\\Server -->
<g id="node10" class="node"><title>\\classes\\websocket\\Server</title>
<polygon fill="none" stroke="black" points="766.5,-1020 709.5,-1020 709.5,-984 766.5,-984 766.5,-1020"/>
<text text-anchor="middle" x="738" y="-999.2" font-family="Courier,monospace" font-size="11.00">Server</text>
</g>
<!-- \\classes\\websocket\\services\\ChatService&#45;&gt;\\classes\\websocket\\Server -->
<g id="edge2" class="edge"><title>\\classes\\websocket\\services\\ChatService&#45;&gt;\\classes\\websocket\\Server</title>
<path fill="none" stroke="black" d="M936.331,-1002C890.532,-1002 820.073,-1002 776.906,-1002"/>
<polygon fill="none" stroke="black" points="776.814,-998.5 766.814,-1002 776.813,-1005.5 776.814,-998.5"/>
</g>
<!-- \\interfaces\\ServiceInterface -->
<g id="node32" class="node"><title>\\interfaces\\ServiceInterface</title>
<polygon fill="none" stroke="black" points="577,-2016 452,-2016 452,-1980 577,-1980 577,-2016"/>
<text text-anchor="middle" x="514.5" y="-1995.2" font-family="Courier,monospace" font-size="11.00">ServiceInterface</text>
</g>
<!-- \\classes\\websocket\\services\\ChatService&#45;&gt;\\interfaces\\ServiceInterface -->
<g id="edge3" class="edge"><title>\\classes\\websocket\\services\\ChatService&#45;&gt;\\interfaces\\ServiceInterface</title>
<path fill="none" stroke="black" stroke-dasharray="1,5" d="M939.011,-1020.09C914.605,-1032.99 885.823,-1052.88 871,-1080 806.868,-1197.32 911.715,-2189.69 815,-2282 765.489,-2329.26 713.608,-2325.78 661,-2282 570.681,-2206.83 693.613,-2107.5 613,-2022 605.795,-2014.36 596.582,-2008.98 586.704,-2005.23"/>
<polygon fill="none" stroke="black" points="587.666,-2001.87 577.074,-2002.11 585.508,-2008.53 587.666,-2001.87"/>
</g>
<!-- \\classes\\console\\Console -->
<g id="node11" class="node"><title>\\classes\\console\\Console</title>
<polygon fill="none" stroke="black" points="1014,-932 950,-932 950,-896 1014,-896 1014,-932"/>
<text text-anchor="middle" x="982" y="-911.2" font-family="Courier,monospace" font-size="11.00">Console</text>
</g>
<!-- \\classes\\console\\ConsoleColors -->
<g id="node12" class="node"><title>\\classes\\console\\ConsoleColors</title>
<polygon fill="none" stroke="black" points="1034,-878 930,-878 930,-842 1034,-842 1034,-878"/>
<text text-anchor="middle" x="982" y="-857.2" font-family="Courier,monospace" font-size="11.00">ConsoleColors</text>
</g>
<!-- \\classes\\entities\\UsersRights -->
<g id="node13" class="node"><title>\\classes\\entities\\UsersRights</title>
<polygon fill="none" stroke="black" points="1027.5,-1290 936.5,-1290 936.5,-1254 1027.5,-1254 1027.5,-1290"/>
<text text-anchor="middle" x="982" y="-1269.2" font-family="Courier,monospace" font-size="11.00">UsersRights</text>
</g>
<!-- \\abstracts\\designPatterns\\Entity -->
<g id="node39" class="node"><title>\\abstracts\\designPatterns\\Entity</title>
<polygon fill="none" stroke="black" points="780,-2070 696,-2070 696,-2034 780,-2034 780,-2070"/>
<text text-anchor="start" x="704" y="-2055.2" font-family="Courier,monospace" font-size="11.00">«abstract»</text>
<text text-anchor="start" x="717.5" y="-2043.2" font-family="Courier,monospace" font-size="11.00">Entity</text>
</g>
<!-- \\classes\\entities\\UsersRights&#45;&gt;\\abstracts\\designPatterns\\Entity -->
<g id="edge5" class="edge"><title>\\classes\\entities\\UsersRights&#45;&gt;\\abstracts\\designPatterns\\Entity</title>
<path fill="none" stroke="black" d="M936.451,-1280.84C913.06,-1287.91 886.175,-1300.36 871,-1322 780.387,-1451.22 914.726,-1907.68 815,-2030 808.62,-2037.83 799.639,-2042.97 790.076,-2046.33"/>
<polygon fill="none" stroke="black" points="789.03,-2042.99 780.394,-2049.13 790.973,-2049.71 789.03,-2042.99"/>
</g>
<!-- \\classes\\entities\\UsersChatRights -->
<g id="node14" class="node"><title>\\classes\\entities\\UsersChatRights</title>
<polygon fill="none" stroke="black" points="1041,-1236 923,-1236 923,-1200 1041,-1200 1041,-1236"/>
<text text-anchor="middle" x="982" y="-1215.2" font-family="Courier,monospace" font-size="11.00">UsersChatRights</text>
</g>
<!-- \\classes\\entities\\UsersChatRights&#45;&gt;\\abstracts\\designPatterns\\Entity -->
<g id="edge6" class="edge"><title>\\classes\\entities\\UsersChatRights&#45;&gt;\\abstracts\\designPatterns\\Entity</title>
<path fill="none" stroke="black" d="M922.938,-1219.01C903.628,-1222.41 883.805,-1229.82 871,-1245 758.246,-1378.69 924.985,-1894.03 815,-2030 808.586,-2037.93 799.499,-2043.11 789.83,-2046.47"/>
<polygon fill="none" stroke="black" points="788.703,-2043.15 780.043,-2049.26 790.62,-2049.88 788.703,-2043.15"/>
</g>
<!-- \\classes\\entities\\UserStatistics -->
<g id="node15" class="node"><title>\\classes\\entities\\UserStatistics</title>
<polygon fill="none" stroke="black" points="1037.5,-1182 926.5,-1182 926.5,-1146 1037.5,-1146 1037.5,-1182"/>
<text text-anchor="middle" x="982" y="-1161.2" font-family="Courier,monospace" font-size="11.00">UserStatistics</text>
</g>
<!-- \\classes\\entities\\UserStatistics&#45;&gt;\\abstracts\\designPatterns\\Entity -->
<g id="edge7" class="edge"><title>\\classes\\entities\\UserStatistics&#45;&gt;\\abstracts\\designPatterns\\Entity</title>
<path fill="none" stroke="black" d="M926.335,-1164.42C905.965,-1167.52 884.529,-1174.89 871,-1191 750.855,-1334.11 932.181,-1884.45 815,-2030 808.604,-2037.94 799.525,-2043.13 789.857,-2046.49"/>
<polygon fill="none" stroke="black" points="788.73,-2043.17 780.071,-2049.28 790.647,-2049.91 788.73,-2043.17"/>
</g>
<!-- \\classes\\entities\\User -->
<g id="node16" class="node"><title>\\classes\\entities\\User</title>
<polygon fill="none" stroke="black" points="1009,-1128 955,-1128 955,-1092 1009,-1092 1009,-1128"/>
<text text-anchor="middle" x="982" y="-1107.2" font-family="Courier,monospace" font-size="11.00">User</text>
</g>
<!-- \\classes\\entities\\User&#45;&gt;\\abstracts\\designPatterns\\Entity -->
<g id="edge9" class="edge"><title>\\classes\\entities\\User&#45;&gt;\\abstracts\\designPatterns\\Entity</title>
<path fill="none" stroke="black" d="M954.709,-1108.36C929.105,-1108.35 891.181,-1112.86 871,-1137 743.461,-1289.54 939.379,-1874.87 815,-2030 808.62,-2037.96 799.548,-2043.15 789.881,-2046.51"/>
<polygon fill="none" stroke="black" points="788.754,-2043.19 780.095,-2049.3 790.671,-2049.93 788.754,-2043.19"/>
</g>
<!-- \\classes\\entitiesCollection\\UserCollection -->
<g id="node17" class="node"><title>\\classes\\entitiesCollection\\UserCollection</title>
<polygon fill="none" stroke="black" points="1037.5,-1370 926.5,-1370 926.5,-1334 1037.5,-1334 1037.5,-1370"/>
<text text-anchor="middle" x="982" y="-1349.2" font-family="Courier,monospace" font-size="11.00">UserCollection</text>
</g>
<!-- \\abstracts\\designPatterns\\Collection -->
<g id="node38" class="node"><title>\\abstracts\\designPatterns\\Collection</title>
<polygon fill="none" stroke="black" points="780,-2124 696,-2124 696,-2088 780,-2088 780,-2124"/>
<text text-anchor="start" x="704" y="-2109.2" font-family="Courier,monospace" font-size="11.00">«abstract»</text>
<text text-anchor="start" x="704" y="-2097.2" font-family="Courier,monospace" font-size="11.00">Collection</text>
</g>
<!-- \\classes\\entitiesCollection\\UserCollection&#45;&gt;\\abstracts\\designPatterns\\Collection -->
<g id="edge11" class="edge"><title>\\classes\\entitiesCollection\\UserCollection&#45;&gt;\\abstracts\\designPatterns\\Collection</title>
<path fill="none" stroke="black" d="M926.29,-1364.24C905.656,-1371.68 884.041,-1383.47 871,-1402 784.107,-1525.44 907.076,-1959.37 815,-2079 808.593,-2087.32 799.413,-2093.09 789.637,-2097.08"/>
<polygon fill="none" stroke="black" points="788.443,-2093.79 780.153,-2100.39 790.748,-2100.4 788.443,-2093.79"/>
</g>
<!-- \\classes\\LoggerManager -->
<g id="node18" class="node"><title>\\classes\\LoggerManager</title>
<polygon fill="none" stroke="black" points="1034,-824 930,-824 930,-788 1034,-788 1034,-824"/>
<text text-anchor="middle" x="982" y="-803.2" font-family="Courier,monospace" font-size="11.00">LoggerManager</text>
</g>
<!-- \\classes\\ExceptionManager -->
<g id="node19" class="node"><title>\\classes\\ExceptionManager</title>
<polygon fill="none" stroke="black" points="1044.5,-770 919.5,-770 919.5,-734 1044.5,-734 1044.5,-770"/>
<text text-anchor="middle" x="982" y="-749.2" font-family="Courier,monospace" font-size="11.00">ExceptionManager</text>
</g>
<!-- \\Exception -->
<g id="node44" class="node"><title>\\Exception</title>
<ellipse fill="none" stroke="black" cx="738" cy="-180" rx="50.0912" ry="18"/>
<text text-anchor="middle" x="738" y="-176.3" font-family="Times New Roman,serif" font-size="14.00" fill="gray">\Exception</text>
</g>
<!-- \\classes\\ExceptionManager&#45;&gt;\\Exception -->
<g id="edge4" class="edge"><title>\\classes\\ExceptionManager&#45;&gt;\\Exception</title>
<path fill="none" stroke="black" d="M919.421,-748.791C901.765,-744.979 883.842,-737.881 871,-725 796.227,-649.997 753.206,-308.821 741.975,-208.084"/>
<polygon fill="none" stroke="black" points="745.445,-207.613 740.874,-198.054 738.487,-208.377 745.445,-207.613"/>
</g>
<!-- \\classes\\PDOStatementCustom -->
<g id="node20" class="node"><title>\\classes\\PDOStatementCustom</title>
<polygon fill="none" stroke="black" points="1051,-716 913,-716 913,-680 1051,-680 1051,-716"/>
<text text-anchor="middle" x="982" y="-695.2" font-family="Courier,monospace" font-size="11.00">PDOStatementCustom</text>
</g>
<!-- \\PDOStatement -->
<g id="node45" class="node"><title>\\PDOStatement</title>
<ellipse fill="none" stroke="black" cx="738" cy="-126" rx="67.6881" ry="18"/>
<text text-anchor="middle" x="738" y="-122.3" font-family="Times New Roman,serif" font-size="14.00" fill="gray">\PDOStatement</text>
</g>
<!-- \\classes\\PDOStatementCustom&#45;&gt;\\PDOStatement -->
<g id="edge10" class="edge"><title>\\classes\\PDOStatementCustom&#45;&gt;\\PDOStatement</title>
<path fill="none" stroke="black" d="M912.917,-694.501C897.09,-690.438 881.748,-683.282 871,-671 718.503,-496.741 958.537,-334.711 815,-153 811.33,-148.354 806.799,-144.507 801.792,-141.32"/>
<polygon fill="none" stroke="black" points="803.445,-138.235 792.984,-136.557 800.116,-144.392 803.445,-138.235"/>
</g>
<!-- \\classes\\Benchmark -->
<g id="node21" class="node"><title>\\classes\\Benchmark</title>
<polygon fill="none" stroke="black" points="1020.5,-662 943.5,-662 943.5,-626 1020.5,-626 1020.5,-662"/>
<text text-anchor="middle" x="982" y="-641.2" font-family="Courier,monospace" font-size="11.00">Benchmark</text>
</g>
<!-- \\classes\\DataBase -->
<g id="node22" class="node"><title>\\classes\\DataBase</title>
<polygon fill="none" stroke="black" points="1017.5,-608 946.5,-608 946.5,-572 1017.5,-572 1017.5,-608"/>
<text text-anchor="middle" x="982" y="-587.2" font-family="Courier,monospace" font-size="11.00">DataBase</text>
</g>
<!-- \\classes\\IniManager -->
<g id="node23" class="node"><title>\\classes\\IniManager</title>
<polygon fill="none" stroke="black" points="1024,-554 940,-554 940,-518 1024,-518 1024,-554"/>
<text text-anchor="middle" x="982" y="-533.2" font-family="Courier,monospace" font-size="11.00">IniManager</text>
</g>
<!-- \\classes\\ImagesManager -->
<g id="node24" class="node"><title>\\classes\\ImagesManager</title>
<polygon fill="none" stroke="black" points="1034,-500 930,-500 930,-464 1034,-464 1034,-500"/>
<text text-anchor="middle" x="982" y="-479.2" font-family="Courier,monospace" font-size="11.00">ImagesManager</text>
</g>
<!-- \\interfaces\\http\\ServerRequestInterface -->
<g id="node25" class="node"><title>\\interfaces\\http\\ServerRequestInterface</title>
<polygon fill="none" stroke="black" points="597,-2232 432,-2232 432,-2196 597,-2196 597,-2232"/>
<text text-anchor="middle" x="514.5" y="-2211.2" font-family="Courier,monospace" font-size="11.00">ServerRequestInterface</text>
</g>
<!-- \\interfaces\\http\\RequestInterface -->
<g id="node26" class="node"><title>\\interfaces\\http\\RequestInterface</title>
<polygon fill="none" stroke="black" points="357,-2232 232,-2232 232,-2196 357,-2196 357,-2232"/>
<text text-anchor="middle" x="294.5" y="-2211.2" font-family="Courier,monospace" font-size="11.00">RequestInterface</text>
</g>
<!-- \\interfaces\\http\\ServerRequestInterface&#45;&gt;\\interfaces\\http\\RequestInterface -->
<g id="edge22" class="edge"><title>\\interfaces\\http\\ServerRequestInterface&#45;&gt;\\interfaces\\http\\RequestInterface</title>
<path fill="none" stroke="black" d="M431.705,-2214C410.62,-2214 388.085,-2214 367.537,-2214"/>
<polygon fill="none" stroke="black" points="367.31,-2210.5 357.31,-2214 367.31,-2217.5 367.31,-2210.5"/>
</g>
<!-- \\interfaces\\http\\MessageInterface -->
<g id="node31" class="node"><title>\\interfaces\\http\\MessageInterface</title>
<polygon fill="none" stroke="black" points="157,-2205 32,-2205 32,-2169 157,-2169 157,-2205"/>
<text text-anchor="middle" x="94.5" y="-2184.2" font-family="Courier,monospace" font-size="11.00">MessageInterface</text>
</g>
<!-- \\interfaces\\http\\RequestInterface&#45;&gt;\\interfaces\\http\\MessageInterface -->
<g id="edge23" class="edge"><title>\\interfaces\\http\\RequestInterface&#45;&gt;\\interfaces\\http\\MessageInterface</title>
<path fill="none" stroke="black" d="M231.937,-2205.61C211.357,-2202.8 188.245,-2199.65 166.975,-2196.75"/>
<polygon fill="none" stroke="black" points="167.406,-2193.27 157.025,-2195.39 166.46,-2200.21 167.406,-2193.27"/>
</g>
<!-- \\interfaces\\http\\ResponseInterface -->
<g id="node27" class="node"><title>\\interfaces\\http\\ResponseInterface</title>
<polygon fill="none" stroke="black" points="360,-2178 229,-2178 229,-2142 360,-2142 360,-2178"/>
<text text-anchor="middle" x="294.5" y="-2157.2" font-family="Courier,monospace" font-size="11.00">ResponseInterface</text>
</g>
<!-- \\interfaces\\http\\ResponseInterface&#45;&gt;\\interfaces\\http\\MessageInterface -->
<g id="edge24" class="edge"><title>\\interfaces\\http\\ResponseInterface&#45;&gt;\\interfaces\\http\\MessageInterface</title>
<path fill="none" stroke="black" d="M228.941,-2168.8C209.247,-2171.49 187.475,-2174.46 167.33,-2177.2"/>
<polygon fill="none" stroke="black" points="166.712,-2173.76 157.277,-2178.58 167.658,-2180.69 166.712,-2173.76"/>
</g>
<!-- \\interfaces\\http\\UploadedFileInterface -->
<g id="node28" class="node"><title>\\interfaces\\http\\UploadedFileInterface</title>
<polygon fill="none" stroke="black" points="593.5,-2178 435.5,-2178 435.5,-2142 593.5,-2142 593.5,-2178"/>
<text text-anchor="middle" x="514.5" y="-2157.2" font-family="Courier,monospace" font-size="11.00">UploadedFileInterface</text>
</g>
<!-- \\interfaces\\http\\StreamInterface -->
<g id="node29" class="node"><title>\\interfaces\\http\\StreamInterface</title>
<polygon fill="none" stroke="black" points="573.5,-2124 455.5,-2124 455.5,-2088 573.5,-2088 573.5,-2124"/>
<text text-anchor="middle" x="514.5" y="-2103.2" font-family="Courier,monospace" font-size="11.00">StreamInterface</text>
</g>
<!-- \\interfaces\\http\\UriInterface -->
<g id="node30" class="node"><title>\\interfaces\\http\\UriInterface</title>
<polygon fill="none" stroke="black" points="563.5,-2070 465.5,-2070 465.5,-2034 563.5,-2034 563.5,-2070"/>
<text text-anchor="middle" x="514.5" y="-2049.2" font-family="Courier,monospace" font-size="11.00">UriInterface</text>
</g>
<!-- \\interfaces\\LoggerInterface -->
<g id="node33" class="node"><title>\\interfaces\\LoggerInterface</title>
<polygon fill="none" stroke="black" points="573.5,-1962 455.5,-1962 455.5,-1926 573.5,-1926 573.5,-1962"/>
<text text-anchor="middle" x="514.5" y="-1941.2" font-family="Courier,monospace" font-size="11.00">LoggerInterface</text>
</g>
<!-- \\traits\\FiltersTrait -->
<g id="node34" class="node"><title>\\traits\\FiltersTrait</title>
<polygon fill="none" stroke="black" points="1031,-420 933,-420 933,-384 1031,-384 1031,-420"/>
<text text-anchor="middle" x="982" y="-399.2" font-family="Courier,monospace" font-size="11.00">FiltersTrait</text>
</g>
<!-- \\traits\\PrettyOutputTrait -->
<g id="node35" class="node"><title>\\traits\\PrettyOutputTrait</title>
<polygon fill="none" stroke="black" points="1047.5,-366 916.5,-366 916.5,-330 1047.5,-330 1047.5,-366"/>
<text text-anchor="middle" x="982" y="-345.2" font-family="Courier,monospace" font-size="11.00">PrettyOutputTrait</text>
</g>
<!-- \\traits\\EchoTrait -->
<g id="node36" class="node"><title>\\traits\\EchoTrait</title>
<polygon fill="none" stroke="black" points="1020.5,-312 943.5,-312 943.5,-276 1020.5,-276 1020.5,-312"/>
<text text-anchor="middle" x="982" y="-291.2" font-family="Courier,monospace" font-size="11.00">EchoTrait</text>
</g>
<!-- \\traits\\ShortcutsTrait -->
<g id="node37" class="node"><title>\\traits\\ShortcutsTrait</title>
<polygon fill="none" stroke="black" points="1037.5,-258 926.5,-258 926.5,-222 1037.5,-222 1037.5,-258"/>
<text text-anchor="middle" x="982" y="-237.2" font-family="Courier,monospace" font-size="11.00">ShortcutsTrait</text>
</g>
<!-- \\Iterator -->
<g id="node46" class="node"><title>\\Iterator</title>
<ellipse fill="none" stroke="black" cx="514.5" cy="-180" rx="39.7935" ry="18"/>
<text text-anchor="middle" x="514.5" y="-176.3" font-family="Times New Roman,serif" font-size="14.00" fill="gray">\Iterator</text>
</g>
<!-- \\abstracts\\designPatterns\\Collection&#45;&gt;\\Iterator -->
<g id="edge15" class="edge"><title>\\abstracts\\designPatterns\\Collection&#45;&gt;\\Iterator</title>
<path fill="none" stroke="black" stroke-dasharray="1,5" d="M695.81,-2100.41C682.696,-2096.54 669.422,-2090.01 661,-2079 601.49,-2001.2 527.466,-439.956 516.803,-208.561"/>
<polygon fill="none" stroke="black" points="520.286,-208.104 516.33,-198.275 513.293,-208.425 520.286,-208.104"/>
</g>
<!-- \\ArrayAccess -->
<g id="node47" class="node"><title>\\ArrayAccess</title>
<ellipse fill="none" stroke="black" cx="514.5" cy="-126" rx="60.3893" ry="18"/>
<text text-anchor="middle" x="514.5" y="-122.3" font-family="Times New Roman,serif" font-size="14.00" fill="gray">\ArrayAccess</text>
</g>
<!-- \\abstracts\\designPatterns\\Collection&#45;&gt;\\ArrayAccess -->
<g id="edge16" class="edge"><title>\\abstracts\\designPatterns\\Collection&#45;&gt;\\ArrayAccess</title>
<path fill="none" stroke="black" stroke-dasharray="1,5" d="M695.884,-2100.77C682.612,-2096.94 669.217,-2090.34 661,-2079 535.372,-1905.67 744.717,-321.745 613,-153 605.528,-143.427 594.98,-137.056 583.562,-132.855"/>
<polygon fill="none" stroke="black" points="584.404,-129.451 573.816,-129.814 582.319,-136.133 584.404,-129.451"/>
</g>
<!-- \\Countable -->
<g id="node48" class="node"><title>\\Countable</title>
<ellipse fill="none" stroke="black" cx="514.5" cy="-72" rx="50.0912" ry="18"/>
<text text-anchor="middle" x="514.5" y="-68.3" font-family="Times New Roman,serif" font-size="14.00" fill="gray">\Countable</text>
</g>
<!-- \\abstracts\\designPatterns\\Collection&#45;&gt;\\Countable -->
<g id="edge17" class="edge"><title>\\abstracts\\designPatterns\\Collection&#45;&gt;\\Countable</title>
<path fill="none" stroke="black" stroke-dasharray="1,5" d="M695.88,-2100.77C682.607,-2096.94 669.214,-2090.34 661,-2079 531.913,-1900.77 748.349,-272.52 613,-99 603.518,-86.8441 589.076,-79.8498 574.191,-75.9067"/>
<polygon fill="none" stroke="black" points="574.913,-72.4819 564.392,-73.7325 573.397,-79.3157 574.913,-72.4819"/>
</g>
<!-- \\SeekableIterator -->
<g id="node49" class="node"><title>\\SeekableIterator</title>
<ellipse fill="none" stroke="black" cx="514.5" cy="-18" rx="71.4873" ry="18"/>
<text text-anchor="middle" x="514.5" y="-14.3" font-family="Times New Roman,serif" font-size="14.00" fill="gray">\SeekableIterator</text>
</g>
<!-- \\abstracts\\designPatterns\\Collection&#45;&gt;\\SeekableIterator -->
<g id="edge18" class="edge"><title>\\abstracts\\designPatterns\\Collection&#45;&gt;\\SeekableIterator</title>
<path fill="none" stroke="black" stroke-dasharray="1,5" d="M695.876,-2100.78C682.603,-2096.94 669.21,-2090.34 661,-2079 528.453,-1895.87 751.981,-223.294 613,-45 607.29,-37.6754 599.78,-32.2247 591.456,-28.1862"/>
<polygon fill="none" stroke="black" points="592.73,-24.9255 582.152,-24.3365 590.054,-31.3938 592.73,-24.9255"/>
</g>
<!-- \\abstracts\\AbstractLogger&#45;&gt;\\interfaces\\LoggerInterface -->
<g id="edge12" class="edge"><title>\\abstracts\\AbstractLogger&#45;&gt;\\interfaces\\LoggerInterface</title>
<path fill="none" stroke="black" stroke-dasharray="1,5" d="M682.147,-2224.05C674.196,-2220.79 666.765,-2216.27 661,-2210 587.657,-2130.26 686.805,-2050.32 613,-1971 604.914,-1962.31 594.303,-1956.33 583.064,-1952.23"/>
<polygon fill="none" stroke="black" points="584.106,-1948.89 573.516,-1949.21 581.995,-1955.56 584.106,-1948.89"/>
</g>
<!-- \\abstracts\\AbstractController -->
<g id="node42" class="node"><title>\\abstracts\\AbstractController</title>
<polygon fill="none" stroke="black" points="807,-2016 669,-2016 669,-1980 807,-1980 807,-2016"/>
<text text-anchor="start" x="704" y="-2001.2" font-family="Courier,monospace" font-size="11.00">«abstract»</text>
<text text-anchor="start" x="677" y="-1989.2" font-family="Courier,monospace" font-size="11.00">AbstractController</text>
</g>
<!-- \\abstracts\\API -->
<g id="node43" class="node"><title>\\abstracts\\API</title>
<polygon fill="none" stroke="black" points="780,-1962 696,-1962 696,-1926 780,-1926 780,-1962"/>
<text text-anchor="start" x="704" y="-1947.2" font-family="Courier,monospace" font-size="11.00">«abstract»</text>
<text text-anchor="start" x="727.5" y="-1935.2" font-family="Courier,monospace" font-size="11.00">API</text>
</g>
</g>
</svg>
