<?xml version="1.0" encoding="UTF-8" standalone="no"?>
<!DOCTYPE svg PUBLIC "-//W3C//DTD SVG 1.1//EN"
 "http://www.w3.org/Graphics/SVG/1.1/DTD/svg11.dtd">
<!-- Generated by graphviz version 2.38.0 (20140413.2041)
 -->
<!-- Title: G Pages: 1 -->
<svg width="1118pt" height="2224pt"
 viewBox="0.00 0.00 1118.00 2224.00" xmlns="http://www.w3.org/2000/svg" xmlns:xlink="http://www.w3.org/1999/xlink">
<g id="graph0" class="graph" transform="scale(1 1) rotate(0) translate(4 2220)">
<title>G</title>
<polygon fill="white" stroke="none" points="-4,4 -4,-2220 1114,-2220 1114,4 -4,4"/>
<g id="clust1" class="cluster"><title>cluster_Global</title>
<path fill="none" stroke="gray" d="M20,-206C20,-206 1090,-206 1090,-206 1096,-206 1102,-212 1102,-218 1102,-218 1102,-2196 1102,-2196 1102,-2202 1096,-2208 1090,-2208 1090,-2208 20,-2208 20,-2208 14,-2208 8,-2202 8,-2196 8,-2196 8,-218 8,-218 8,-212 14,-206 20,-206"/>
<text text-anchor="middle" x="555" y="-2195.2" font-family="Times New Roman,serif" font-size="11.00" fill="gray">Global</text>
</g>
<g id="clust2" class="cluster"><title>cluster_\classes</title>
<path fill="none" stroke="gray" d="M705.5,-456C705.5,-456 1082,-456 1082,-456 1088,-456 1094,-462 1094,-468 1094,-468 1094,-1790 1094,-1790 1094,-1796 1088,-1802 1082,-1802 1082,-1802 705.5,-1802 705.5,-1802 699.5,-1802 693.5,-1796 693.5,-1790 693.5,-1790 693.5,-468 693.5,-468 693.5,-462 699.5,-456 705.5,-456"/>
<text text-anchor="middle" x="893.75" y="-1789.2" font-family="Times New Roman,serif" font-size="11.00" fill="gray">classes</text>
</g>
<g id="clust4" class="cluster"><title>cluster_\classes\logger</title>
<path fill="none" stroke="gray" d="M930.5,-1594C930.5,-1594 1026.5,-1594 1026.5,-1594 1032.5,-1594 1038.5,-1600 1038.5,-1606 1038.5,-1606 1038.5,-1762 1038.5,-1762 1038.5,-1768 1032.5,-1774 1026.5,-1774 1026.5,-1774 930.5,-1774 930.5,-1774 924.5,-1774 918.5,-1768 918.5,-1762 918.5,-1762 918.5,-1606 918.5,-1606 918.5,-1600 924.5,-1594 930.5,-1594"/>
<text text-anchor="middle" x="978.5" y="-1761.2" font-family="Times New Roman,serif" font-size="11.00" fill="gray">logger</text>
</g>
<g id="clust3" class="cluster"><title>cluster_\classes\entitiesManager</title>
<path fill="none" stroke="gray" d="M883,-1352C883,-1352 1074,-1352 1074,-1352 1080,-1352 1086,-1358 1086,-1364 1086,-1364 1086,-1574 1086,-1574 1086,-1580 1080,-1586 1074,-1586 1074,-1586 883,-1586 883,-1586 877,-1586 871,-1580 871,-1574 871,-1574 871,-1364 871,-1364 871,-1358 877,-1352 883,-1352"/>
<text text-anchor="middle" x="978.5" y="-1573.2" font-family="Times New Roman,serif" font-size="11.00" fill="gray">entitiesManager</text>
</g>
<g id="clust9" class="cluster"><title>cluster_\classes\entitiesCollection</title>
<path fill="none" stroke="gray" d="M927,-1272C927,-1272 1030,-1272 1030,-1272 1036,-1272 1042,-1278 1042,-1284 1042,-1284 1042,-1332 1042,-1332 1042,-1338 1036,-1344 1030,-1344 1030,-1344 927,-1344 927,-1344 921,-1344 915,-1338 915,-1332 915,-1332 915,-1284 915,-1284 915,-1278 921,-1272 927,-1272"/>
<text text-anchor="middle" x="978.5" y="-1331.2" font-family="Times New Roman,serif" font-size="11.00" fill="gray">entitiesCollection</text>
</g>
<g id="clust5" class="cluster"><title>cluster_\classes\websocket</title>
<path fill="none" stroke="gray" d="M713.5,-1156C713.5,-1156 1028,-1156 1028,-1156 1034,-1156 1040,-1162 1040,-1168 1040,-1168 1040,-1252 1040,-1252 1040,-1258 1034,-1264 1028,-1264 1028,-1264 713.5,-1264 713.5,-1264 707.5,-1264 701.5,-1258 701.5,-1252 701.5,-1252 701.5,-1168 701.5,-1168 701.5,-1162 707.5,-1156 713.5,-1156"/>
<text text-anchor="middle" x="870.75" y="-1251.2" font-family="Times New Roman,serif" font-size="11.00" fill="gray">websocket</text>
</g>
<g id="clust6" class="cluster"><title>cluster_\classes\websocket\services</title>
<path fill="none" stroke="gray" d="M937,-1164C937,-1164 1020,-1164 1020,-1164 1026,-1164 1032,-1170 1032,-1176 1032,-1176 1032,-1224 1032,-1224 1032,-1230 1026,-1236 1020,-1236 1020,-1236 937,-1236 937,-1236 931,-1236 925,-1230 925,-1224 925,-1224 925,-1176 925,-1176 925,-1170 931,-1164 937,-1164"/>
<text text-anchor="middle" x="978.5" y="-1223.2" font-family="Times New Roman,serif" font-size="11.00" fill="gray">services</text>
</g>
<g id="clust7" class="cluster"><title>cluster_\classes\console</title>
<path fill="none" stroke="gray" d="M930.5,-1022C930.5,-1022 1026.5,-1022 1026.5,-1022 1032.5,-1022 1038.5,-1028 1038.5,-1034 1038.5,-1034 1038.5,-1136 1038.5,-1136 1038.5,-1142 1032.5,-1148 1026.5,-1148 1026.5,-1148 930.5,-1148 930.5,-1148 924.5,-1148 918.5,-1142 918.5,-1136 918.5,-1136 918.5,-1034 918.5,-1034 918.5,-1028 924.5,-1022 930.5,-1022"/>
<text text-anchor="middle" x="978.5" y="-1135.2" font-family="Times New Roman,serif" font-size="11.00" fill="gray">console</text>
</g>
<g id="clust8" class="cluster"><title>cluster_\classes\entities</title>
<path fill="none" stroke="gray" d="M927,-834C927,-834 1030,-834 1030,-834 1036,-834 1042,-840 1042,-846 1042,-846 1042,-1002 1042,-1002 1042,-1008 1036,-1014 1030,-1014 1030,-1014 927,-1014 927,-1014 921,-1014 915,-1008 915,-1002 915,-1002 915,-846 915,-846 915,-840 921,-834 927,-834"/>
<text text-anchor="middle" x="978.5" y="-1001.2" font-family="Times New Roman,serif" font-size="11.00" fill="gray">entities</text>
</g>
<g id="clust10" class="cluster"><title>cluster_\interfaces</title>
<path fill="none" stroke="gray" d="M28,-1810C28,-1810 601,-1810 601,-1810 607,-1810 613,-1816 613,-1822 613,-1822 613,-2168 613,-2168 613,-2174 607,-2180 601,-2180 601,-2180 28,-2180 28,-2180 22,-2180 16,-2174 16,-2168 16,-2168 16,-1822 16,-1822 16,-1816 22,-1810 28,-1810"/>
<text text-anchor="middle" x="314.5" y="-2167.2" font-family="Times New Roman,serif" font-size="11.00" fill="gray">interfaces</text>
</g>
<g id="clust11" class="cluster"><title>cluster_\interfaces\http</title>
<path fill="none" stroke="gray" d="M36,-1918C36,-1918 593,-1918 593,-1918 599,-1918 605,-1924 605,-1930 605,-1930 605,-2140 605,-2140 605,-2146 599,-2152 593,-2152 593,-2152 36,-2152 36,-2152 30,-2152 24,-2146 24,-2140 24,-2140 24,-1930 24,-1930 24,-1924 30,-1918 36,-1918"/>
<text text-anchor="middle" x="314.5" y="-2139.2" font-family="Times New Roman,serif" font-size="11.00" fill="gray">http</text>
</g>
<g id="clust12" class="cluster"><title>cluster_\traits</title>
<path fill="none" stroke="gray" d="M917,-214C917,-214 1040,-214 1040,-214 1046,-214 1052,-220 1052,-226 1052,-226 1052,-436 1052,-436 1052,-442 1046,-448 1040,-448 1040,-448 917,-448 917,-448 911,-448 905,-442 905,-436 905,-436 905,-226 905,-226 905,-220 911,-214 917,-214"/>
<text text-anchor="middle" x="978.5" y="-435.2" font-family="Times New Roman,serif" font-size="11.00" fill="gray">traits</text>
</g>
<g id="clust13" class="cluster"><title>cluster_\abstracts</title>
<path fill="none" stroke="gray" d="M673,-1810C673,-1810 803,-1810 803,-1810 809,-1810 815,-1816 815,-1822 815,-1822 815,-2158 815,-2158 815,-2164 809,-2170 803,-2170 803,-2170 673,-2170 673,-2170 667,-2170 661,-2164 661,-2158 661,-2158 661,-1822 661,-1822 661,-1816 667,-1810 673,-1810"/>
<text text-anchor="middle" x="738" y="-2157.2" font-family="Times New Roman,serif" font-size="11.00" fill="gray">abstracts</text>
</g>
<g id="clust14" class="cluster"><title>cluster_\abstracts\designPatterns</title>
<path fill="none" stroke="gray" d="M690,-1918C690,-1918 786,-1918 786,-1918 792,-1918 798,-1924 798,-1930 798,-1930 798,-2086 798,-2086 798,-2092 792,-2098 786,-2098 786,-2098 690,-2098 690,-2098 684,-2098 678,-2092 678,-2086 678,-2086 678,-1930 678,-1930 678,-1924 684,-1918 690,-1918"/>
<text text-anchor="middle" x="738" y="-2085.2" font-family="Times New Roman,serif" font-size="11.00" fill="gray">designPatterns</text>
</g>
<!-- \\classes\\entitiesManager\\UserEntityManager -->
<g id="node1" class="node"><title>\\classes\\entitiesManager\\UserEntityManager</title>
<polygon fill="none" stroke="black" points="1044,-1558 913,-1558 913,-1522 1044,-1522 1044,-1558"/>
<text text-anchor="middle" x="978.5" y="-1537.2" font-family="Courier,monospace" font-size="11.00">UserEntityManager</text>
</g>
<!-- \\abstracts\\designPatterns\\EntityManager -->
<g id="node38" class="node"><title>\\abstracts\\designPatterns\\EntityManager</title>
<polygon fill="none" stroke="black" points="790,-2070 686,-2070 686,-2034 790,-2034 790,-2070"/>
<text text-anchor="start" x="704" y="-2055.2" font-family="Courier,monospace" font-size="11.00">«abstract»</text>
<text text-anchor="start" x="694" y="-2043.2" font-family="Courier,monospace" font-size="11.00">EntityManager</text>
</g>
<!-- \\classes\\entitiesManager\\UserEntityManager&#45;&gt;\\abstracts\\designPatterns\\EntityManager -->
<g id="edge1" class="edge"><title>\\classes\\entitiesManager\\UserEntityManager&#45;&gt;\\abstracts\\designPatterns\\EntityManager</title>
<path fill="none" stroke="black" d="M912.949,-1557.96C896.942,-1565.39 881.408,-1575.72 871,-1590 756.167,-1747.51 937.378,-1873.27 815,-2025 810.688,-2030.35 805.239,-2034.63 799.247,-2038.07"/>
<polygon fill="none" stroke="black" points="797.588,-2034.99 790.147,-2042.53 800.667,-2041.28 797.588,-2034.99"/>
</g>
<!-- \\classes\\entitiesManager\\UsersRightsEntityManager -->
<g id="node2" class="node"><title>\\classes\\entitiesManager\\UsersRightsEntityManager</title>
<polygon fill="none" stroke="black" points="1068,-1504 889,-1504 889,-1468 1068,-1468 1068,-1504"/>
<text text-anchor="middle" x="978.5" y="-1483.2" font-family="Courier,monospace" font-size="11.00">UsersRightsEntityManager</text>
</g>
<!-- \\classes\\entitiesManager\\UsersRightsEntityManager&#45;&gt;\\abstracts\\designPatterns\\EntityManager -->
<g id="edge17" class="edge"><title>\\classes\\entitiesManager\\UsersRightsEntityManager&#45;&gt;\\abstracts\\designPatterns\\EntityManager</title>
<path fill="none" stroke="black" d="M888.929,-1498.79C882.2,-1502.51 876.069,-1507.17 871,-1513 720.796,-1685.74 957.006,-1845.46 815,-2025 810.74,-2030.39 805.322,-2034.7 799.347,-2038.15"/>
<polygon fill="none" stroke="black" points="797.691,-2035.07 790.264,-2042.62 800.782,-2041.35 797.691,-2035.07"/>
</g>
<!-- \\classes\\entitiesManager\\UserStatisticsEntityManager -->
<g id="node3" class="node"><title>\\classes\\entitiesManager\\UserStatisticsEntityManager</title>
<polygon fill="none" stroke="black" points="1078,-1450 879,-1450 879,-1414 1078,-1414 1078,-1450"/>
<text text-anchor="middle" x="978.5" y="-1429.2" font-family="Courier,monospace" font-size="11.00">UserStatisticsEntityManager</text>
</g>
<!-- \\classes\\entitiesManager\\UserStatisticsEntityManager&#45;&gt;\\abstracts\\designPatterns\\EntityManager -->
<g id="edge18" class="edge"><title>\\classes\\entitiesManager\\UserStatisticsEntityManager&#45;&gt;\\abstracts\\designPatterns\\EntityManager</title>
<path fill="none" stroke="black" d="M880.536,-1450.12C877.069,-1452.73 873.862,-1455.67 871,-1459 788.56,-1554.8 892.895,-1925.46 815,-2025 810.767,-2030.41 805.367,-2034.74 799.402,-2038.2"/>
<polygon fill="none" stroke="black" points="797.746,-2035.11 790.328,-2042.67 800.844,-2041.39 797.746,-2035.11"/>
</g>
<!-- \\classes\\entitiesManager\\GlobalEntityManager -->
<g id="node4" class="node"><title>\\classes\\entitiesManager\\GlobalEntityManager</title>
<polygon fill="none" stroke="black" points="1051,-1396 906,-1396 906,-1360 1051,-1360 1051,-1396"/>
<text text-anchor="middle" x="978.5" y="-1375.2" font-family="Courier,monospace" font-size="11.00">GlobalEntityManager</text>
</g>
<!-- \\classes\\entitiesManager\\GlobalEntityManager&#45;&gt;\\abstracts\\designPatterns\\EntityManager -->
<g id="edge19" class="edge"><title>\\classes\\entitiesManager\\GlobalEntityManager&#45;&gt;\\abstracts\\designPatterns\\EntityManager</title>
<path fill="none" stroke="black" d="M905.895,-1383.43C892.58,-1387.66 880.037,-1394.41 871,-1405 781.216,-1510.24 899.791,-1915.69 815,-2025 810.791,-2030.43 805.404,-2034.76 799.447,-2038.23"/>
<polygon fill="none" stroke="black" points="797.793,-2035.15 790.38,-2042.72 800.896,-2041.42 797.793,-2035.15"/>
</g>
<!-- \\classes\\logger\\LogLevel -->
<g id="node5" class="node"><title>\\classes\\logger\\LogLevel</title>
<polygon fill="none" stroke="black" points="1014,-1746 943,-1746 943,-1710 1014,-1710 1014,-1746"/>
<text text-anchor="middle" x="978.5" y="-1725.2" font-family="Courier,monospace" font-size="11.00">LogLevel</text>
</g>
<!-- \\classes\\logger\\ConsoleLogger -->
<g id="node6" class="node"><title>\\classes\\logger\\ConsoleLogger</title>
<polygon fill="none" stroke="black" points="1030.5,-1692 926.5,-1692 926.5,-1656 1030.5,-1656 1030.5,-1692"/>
<text text-anchor="middle" x="978.5" y="-1671.2" font-family="Courier,monospace" font-size="11.00">ConsoleLogger</text>
</g>
<!-- \\abstracts\\AbstractLogger -->
<g id="node39" class="node"><title>\\abstracts\\AbstractLogger</title>
<polygon fill="none" stroke="black" points="793.5,-2142 682.5,-2142 682.5,-2106 793.5,-2106 793.5,-2142"/>
<text text-anchor="start" x="704" y="-2127.2" font-family="Courier,monospace" font-size="11.00">«abstract»</text>
<text text-anchor="start" x="690.5" y="-2115.2" font-family="Courier,monospace" font-size="11.00">AbstractLogger</text>
</g>
<!-- \\classes\\logger\\ConsoleLogger&#45;&gt;\\abstracts\\AbstractLogger -->
<g id="edge7" class="edge"><title>\\classes\\logger\\ConsoleLogger&#45;&gt;\\abstracts\\AbstractLogger</title>
<path fill="none" stroke="black" d="M926.48,-1675.12C906.438,-1678.26 884.938,-1685.44 871,-1701 750.911,-1835.02 932.828,-1965.99 815,-2102 811.547,-2105.99 807.421,-2109.27 802.9,-2111.98"/>
<polygon fill="none" stroke="black" points="801.197,-2108.91 793.795,-2116.49 804.309,-2115.18 801.197,-2108.91"/>
</g>
<!-- \\classes\\logger\\FileLogger -->
<g id="node7" class="node"><title>\\classes\\logger\\FileLogger</title>
<polygon fill="none" stroke="black" points="1020.5,-1638 936.5,-1638 936.5,-1602 1020.5,-1602 1020.5,-1638"/>
<text text-anchor="middle" x="978.5" y="-1617.2" font-family="Courier,monospace" font-size="11.00">FileLogger</text>
</g>
<!-- \\classes\\logger\\FileLogger&#45;&gt;\\abstracts\\AbstractLogger -->
<g id="edge12" class="edge"><title>\\classes\\logger\\FileLogger&#45;&gt;\\abstracts\\AbstractLogger</title>
<path fill="none" stroke="black" d="M936.359,-1619.76C913.77,-1621.93 887.145,-1628.68 871,-1647 736.272,-1799.84 947.151,-1946.92 815,-2102 811.525,-2106.08 807.346,-2109.42 802.756,-2112.17"/>
<polygon fill="none" stroke="black" points="800.923,-2109.17 793.503,-2116.73 804.02,-2115.44 800.923,-2109.17"/>
</g>
<!-- \\classes\\websocket\\services\\ChatService -->
<g id="node8" class="node"><title>\\classes\\websocket\\services\\ChatService</title>
<polygon fill="none" stroke="black" points="1024,-1208 933,-1208 933,-1172 1024,-1172 1024,-1208"/>
<text text-anchor="middle" x="978.5" y="-1187.2" font-family="Courier,monospace" font-size="11.00">ChatService</text>
</g>
<!-- \\classes\\websocket\\Server -->
<g id="node9" class="node"><title>\\classes\\websocket\\Server</title>
<polygon fill="none" stroke="black" points="766.5,-1208 709.5,-1208 709.5,-1172 766.5,-1172 766.5,-1208"/>
<text text-anchor="middle" x="738" y="-1187.2" font-family="Courier,monospace" font-size="11.00">Server</text>
</g>
<!-- \\classes\\websocket\\services\\ChatService&#45;&gt;\\classes\\websocket\\Server -->
<g id="edge2" class="edge"><title>\\classes\\websocket\\services\\ChatService&#45;&gt;\\classes\\websocket\\Server</title>
<path fill="none" stroke="black" d="M932.92,-1190C887.926,-1190 819.202,-1190 776.796,-1190"/>
<polygon fill="none" stroke="black" points="776.613,-1186.5 766.613,-1190 776.613,-1193.5 776.613,-1186.5"/>
</g>
<!-- \\interfaces\\ServiceInterface -->
<g id="node30" class="node"><title>\\interfaces\\ServiceInterface</title>
<polygon fill="none" stroke="black" points="577,-1908 452,-1908 452,-1872 577,-1872 577,-1908"/>
<text text-anchor="middle" x="514.5" y="-1887.2" font-family="Courier,monospace" font-size="11.00">ServiceInterface</text>
</g>
<!-- \\classes\\websocket\\services\\ChatService&#45;&gt;\\interfaces\\ServiceInterface -->
<g id="edge3" class="edge"><title>\\classes\\websocket\\services\\ChatService&#45;&gt;\\interfaces\\ServiceInterface</title>
<path fill="none" stroke="black" stroke-dasharray="1,5" d="M937.76,-1208.05C914.005,-1221.09 885.674,-1241.15 871,-1268 822.628,-1356.5 888.485,-2104.92 815,-2174 765.132,-2220.88 713.608,-2217.78 661,-2174 570.681,-2098.83 693.613,-1999.5 613,-1914 605.795,-1906.36 596.582,-1900.98 586.704,-1897.23"/>
<polygon fill="none" stroke="black" points="587.666,-1893.87 577.074,-1894.11 585.508,-1900.53 587.666,-1893.87"/>
</g>
<!-- \\classes\\console\\Console -->
<g id="node10" class="node"><title>\\classes\\console\\Console</title>
<polygon fill="none" stroke="black" points="1010.5,-1120 946.5,-1120 946.5,-1084 1010.5,-1084 1010.5,-1120"/>
<text text-anchor="middle" x="978.5" y="-1099.2" font-family="Courier,monospace" font-size="11.00">Console</text>
</g>
<!-- \\classes\\console\\ConsoleColors -->
<g id="node11" class="node"><title>\\classes\\console\\ConsoleColors</title>
<polygon fill="none" stroke="black" points="1030.5,-1066 926.5,-1066 926.5,-1030 1030.5,-1030 1030.5,-1066"/>
<text text-anchor="middle" x="978.5" y="-1045.2" font-family="Courier,monospace" font-size="11.00">ConsoleColors</text>
</g>
<!-- \\classes\\entities\\UsersRights -->
<g id="node12" class="node"><title>\\classes\\entities\\UsersRights</title>
<polygon fill="none" stroke="black" points="1024,-986 933,-986 933,-950 1024,-950 1024,-986"/>
<text text-anchor="middle" x="978.5" y="-965.2" font-family="Courier,monospace" font-size="11.00">UsersRights</text>
</g>
<!-- \\abstracts\\designPatterns\\Entity -->
<g id="node37" class="node"><title>\\abstracts\\designPatterns\\Entity</title>
<polygon fill="none" stroke="black" points="780,-1962 696,-1962 696,-1926 780,-1926 780,-1962"/>
<text text-anchor="start" x="704" y="-1947.2" font-family="Courier,monospace" font-size="11.00">«abstract»</text>
<text text-anchor="start" x="717.5" y="-1935.2" font-family="Courier,monospace" font-size="11.00">Entity</text>
</g>
<!-- \\classes\\entities\\UsersRights&#45;&gt;\\abstracts\\designPatterns\\Entity -->
<g id="edge5" class="edge"><title>\\classes\\entities\\UsersRights&#45;&gt;\\abstracts\\designPatterns\\Entity</title>
<path fill="none" stroke="black" d="M932.838,-977.55C910.463,-984.765 885.178,-997.136 871,-1018 757.874,-1184.47 940.846,-1764.92 815,-1922 808.623,-1929.96 799.552,-1935.15 789.886,-1938.51"/>
<polygon fill="none" stroke="black" points="788.759,-1935.2 780.099,-1941.3 790.675,-1941.93 788.759,-1935.2"/>
</g>
<!-- \\classes\\entities\\UserStatistics -->
<g id="node13" class="node"><title>\\classes\\entities\\UserStatistics</title>
<polygon fill="none" stroke="black" points="1034,-932 923,-932 923,-896 1034,-896 1034,-932"/>
<text text-anchor="middle" x="978.5" y="-911.2" font-family="Courier,monospace" font-size="11.00">UserStatistics</text>
</g>
<!-- \\classes\\entities\\UserStatistics&#45;&gt;\\abstracts\\designPatterns\\Entity -->
<g id="edge6" class="edge"><title>\\classes\\entities\\UserStatistics&#45;&gt;\\abstracts\\designPatterns\\Entity</title>
<path fill="none" stroke="black" d="M922.8,-915.068C903.567,-918.372 883.624,-925.697 871,-941 732.049,-1109.44 951.112,-1751.26 815,-1922 808.642,-1929.98 799.579,-1935.17 789.915,-1938.54"/>
<polygon fill="none" stroke="black" points="788.788,-1935.22 780.128,-1941.32 790.705,-1941.95 788.788,-1935.22"/>
</g>
<!-- \\classes\\entities\\User -->
<g id="node14" class="node"><title>\\classes\\entities\\User</title>
<polygon fill="none" stroke="black" points="1005.5,-878 951.5,-878 951.5,-842 1005.5,-842 1005.5,-878"/>
<text text-anchor="middle" x="978.5" y="-857.2" font-family="Courier,monospace" font-size="11.00">User</text>
</g>
<!-- \\classes\\entities\\User&#45;&gt;\\abstracts\\designPatterns\\Entity -->
<g id="edge8" class="edge"><title>\\classes\\entities\\User&#45;&gt;\\abstracts\\designPatterns\\Entity</title>
<path fill="none" stroke="black" d="M951.044,-858.608C926.225,-858.894 890.144,-863.723 871,-887 724.688,-1064.9 958.313,-1741.68 815,-1922 808.654,-1929.98 799.596,-1935.19 789.933,-1938.55"/>
<polygon fill="none" stroke="black" points="788.806,-1935.23 780.146,-1941.34 790.722,-1941.97 788.806,-1935.23"/>
</g>
<!-- \\classes\\entitiesCollection\\UserCollection -->
<g id="node15" class="node"><title>\\classes\\entitiesCollection\\UserCollection</title>
<polygon fill="none" stroke="black" points="1034,-1316 923,-1316 923,-1280 1034,-1280 1034,-1316"/>
<text text-anchor="middle" x="978.5" y="-1295.2" font-family="Courier,monospace" font-size="11.00">UserCollection</text>
</g>
<!-- \\abstracts\\designPatterns\\Collection -->
<g id="node36" class="node"><title>\\abstracts\\designPatterns\\Collection</title>
<polygon fill="none" stroke="black" points="780,-2016 696,-2016 696,-1980 780,-1980 780,-2016"/>
<text text-anchor="start" x="704" y="-2001.2" font-family="Courier,monospace" font-size="11.00">«abstract»</text>
<text text-anchor="start" x="704" y="-1989.2" font-family="Courier,monospace" font-size="11.00">Collection</text>
</g>
<!-- \\classes\\entitiesCollection\\UserCollection&#45;&gt;\\abstracts\\designPatterns\\Collection -->
<g id="edge10" class="edge"><title>\\classes\\entitiesCollection\\UserCollection&#45;&gt;\\abstracts\\designPatterns\\Collection</title>
<path fill="none" stroke="black" d="M922.89,-1311.33C903.426,-1318.86 883.3,-1330.43 871,-1348 791.284,-1461.87 900.175,-1861.15 815,-1971 808.563,-1979.3 799.372,-1985.06 789.593,-1989.04"/>
<polygon fill="none" stroke="black" points="788.399,-1985.75 780.109,-1992.35 790.704,-1992.36 788.399,-1985.75"/>
</g>
<!-- \\classes\\LoggerManager -->
<g id="node16" class="node"><title>\\classes\\LoggerManager</title>
<polygon fill="none" stroke="black" points="1030.5,-824 926.5,-824 926.5,-788 1030.5,-788 1030.5,-824"/>
<text text-anchor="middle" x="978.5" y="-803.2" font-family="Courier,monospace" font-size="11.00">LoggerManager</text>
</g>
<!-- \\classes\\ExceptionManager -->
<g id="node17" class="node"><title>\\classes\\ExceptionManager</title>
<polygon fill="none" stroke="black" points="1041,-770 916,-770 916,-734 1041,-734 1041,-770"/>
<text text-anchor="middle" x="978.5" y="-749.2" font-family="Courier,monospace" font-size="11.00">ExceptionManager</text>
</g>
<!-- \\Exception -->
<g id="node42" class="node"><title>\\Exception</title>
<ellipse fill="none" stroke="black" cx="738" cy="-180" rx="50.0912" ry="18"/>
<text text-anchor="middle" x="738" y="-176.3" font-family="Times New Roman,serif" font-size="14.00" fill="gray">\Exception</text>
</g>
<!-- \\classes\\ExceptionManager&#45;&gt;\\Exception -->
<g id="edge4" class="edge"><title>\\classes\\ExceptionManager&#45;&gt;\\Exception</title>
<path fill="none" stroke="black" d="M915.909,-747.928C899.45,-744.008 882.94,-737.068 871,-725 796.513,-649.714 753.292,-308.736 741.995,-208.065"/>
<polygon fill="none" stroke="black" points="745.464,-207.597 740.887,-198.042 738.507,-208.366 745.464,-207.597"/>
</g>
<!-- \\classes\\PDOStatementCustom -->
<g id="node18" class="node"><title>\\classes\\PDOStatementCustom</title>
<polygon fill="none" stroke="black" points="1047.5,-716 909.5,-716 909.5,-680 1047.5,-680 1047.5,-716"/>
<text text-anchor="middle" x="978.5" y="-695.2" font-family="Courier,monospace" font-size="11.00">PDOStatementCustom</text>
</g>
<!-- \\PDOStatement -->
<g id="node43" class="node"><title>\\PDOStatement</title>
<ellipse fill="none" stroke="black" cx="738" cy="-126" rx="67.6881" ry="18"/>
<text text-anchor="middle" x="738" y="-122.3" font-family="Times New Roman,serif" font-size="14.00" fill="gray">\PDOStatement</text>
</g>
<!-- \\classes\\PDOStatementCustom&#45;&gt;\\PDOStatement -->
<g id="edge9" class="edge"><title>\\classes\\PDOStatementCustom&#45;&gt;\\PDOStatement</title>
<path fill="none" stroke="black" d="M909.336,-693.443C894.805,-689.304 880.881,-682.377 871,-671 719.166,-496.163 958.537,-334.711 815,-153 811.33,-148.354 806.799,-144.507 801.792,-141.32"/>
<polygon fill="none" stroke="black" points="803.445,-138.235 792.984,-136.557 800.116,-144.392 803.445,-138.235"/>
</g>
<!-- \\classes\\Benchmark -->
<g id="node19" class="node"><title>\\classes\\Benchmark</title>
<polygon fill="none" stroke="black" points="1017,-662 940,-662 940,-626 1017,-626 1017,-662"/>
<text text-anchor="middle" x="978.5" y="-641.2" font-family="Courier,monospace" font-size="11.00">Benchmark</text>
</g>
<!-- \\classes\\DataBase -->
<g id="node20" class="node"><title>\\classes\\DataBase</title>
<polygon fill="none" stroke="black" points="1014,-608 943,-608 943,-572 1014,-572 1014,-608"/>
<text text-anchor="middle" x="978.5" y="-587.2" font-family="Courier,monospace" font-size="11.00">DataBase</text>
</g>
<!-- \\classes\\IniManager -->
<g id="node21" class="node"><title>\\classes\\IniManager</title>
<polygon fill="none" stroke="black" points="1020.5,-554 936.5,-554 936.5,-518 1020.5,-518 1020.5,-554"/>
<text text-anchor="middle" x="978.5" y="-533.2" font-family="Courier,monospace" font-size="11.00">IniManager</text>
</g>
<!-- \\classes\\ImagesManager -->
<g id="node22" class="node"><title>\\classes\\ImagesManager</title>
<polygon fill="none" stroke="black" points="1030.5,-500 926.5,-500 926.5,-464 1030.5,-464 1030.5,-500"/>
<text text-anchor="middle" x="978.5" y="-479.2" font-family="Courier,monospace" font-size="11.00">ImagesManager</text>
</g>
<!-- \\interfaces\\http\\ServerRequestInterface -->
<g id="node23" class="node"><title>\\interfaces\\http\\ServerRequestInterface</title>
<polygon fill="none" stroke="black" points="597,-2124 432,-2124 432,-2088 597,-2088 597,-2124"/>
<text text-anchor="middle" x="514.5" y="-2103.2" font-family="Courier,monospace" font-size="11.00">ServerRequestInterface</text>
</g>
<!-- \\interfaces\\http\\RequestInterface -->
<g id="node24" class="node"><title>\\interfaces\\http\\RequestInterface</title>
<polygon fill="none" stroke="black" points="357,-2124 232,-2124 232,-2088 357,-2088 357,-2124"/>
<text text-anchor="middle" x="294.5" y="-2103.2" font-family="Courier,monospace" font-size="11.00">RequestInterface</text>
</g>
<!-- \\interfaces\\http\\ServerRequestInterface&#45;&gt;\\interfaces\\http\\RequestInterface -->
<g id="edge20" class="edge"><title>\\interfaces\\http\\ServerRequestInterface&#45;&gt;\\interfaces\\http\\RequestInterface</title>
<path fill="none" stroke="black" d="M431.705,-2106C410.62,-2106 388.085,-2106 367.537,-2106"/>
<polygon fill="none" stroke="black" points="367.31,-2102.5 357.31,-2106 367.31,-2109.5 367.31,-2102.5"/>
</g>
<!-- \\interfaces\\http\\MessageInterface -->
<g id="node29" class="node"><title>\\interfaces\\http\\MessageInterface</title>
<polygon fill="none" stroke="black" points="157,-2097 32,-2097 32,-2061 157,-2061 157,-2097"/>
<text text-anchor="middle" x="94.5" y="-2076.2" font-family="Courier,monospace" font-size="11.00">MessageInterface</text>
</g>
<!-- \\interfaces\\http\\RequestInterface&#45;&gt;\\interfaces\\http\\MessageInterface -->
<g id="edge21" class="edge"><title>\\interfaces\\http\\RequestInterface&#45;&gt;\\interfaces\\http\\MessageInterface</title>
<path fill="none" stroke="black" d="M231.937,-2097.61C211.357,-2094.8 188.245,-2091.65 166.975,-2088.75"/>
<polygon fill="none" stroke="black" points="167.406,-2085.27 157.025,-2087.39 166.46,-2092.21 167.406,-2085.27"/>
</g>
<!-- \\interfaces\\http\\ResponseInterface -->
<g id="node25" class="node"><title>\\interfaces\\http\\ResponseInterface</title>
<polygon fill="none" stroke="black" points="360,-2070 229,-2070 229,-2034 360,-2034 360,-2070"/>
<text text-anchor="middle" x="294.5" y="-2049.2" font-family="Courier,monospace" font-size="11.00">ResponseInterface</text>
</g>
<!-- \\interfaces\\http\\ResponseInterface&#45;&gt;\\interfaces\\http\\MessageInterface -->
<g id="edge22" class="edge"><title>\\interfaces\\http\\ResponseInterface&#45;&gt;\\interfaces\\http\\MessageInterface</title>
<path fill="none" stroke="black" d="M228.941,-2060.8C209.247,-2063.49 187.475,-2066.46 167.33,-2069.2"/>
<polygon fill="none" stroke="black" points="166.712,-2065.76 157.277,-2070.58 167.658,-2072.69 166.712,-2065.76"/>
</g>
<!-- \\interfaces\\http\\UploadedFileInterface -->
<g id="node26" class="node"><title>\\interfaces\\http\\UploadedFileInterface</title>
<polygon fill="none" stroke="black" points="593.5,-2070 435.5,-2070 435.5,-2034 593.5,-2034 593.5,-2070"/>
<text text-anchor="middle" x="514.5" y="-2049.2" font-family="Courier,monospace" font-size="11.00">UploadedFileInterface</text>
</g>
<!-- \\interfaces\\http\\StreamInterface -->
<g id="node27" class="node"><title>\\interfaces\\http\\StreamInterface</title>
<polygon fill="none" stroke="black" points="573.5,-2016 455.5,-2016 455.5,-1980 573.5,-1980 573.5,-2016"/>
<text text-anchor="middle" x="514.5" y="-1995.2" font-family="Courier,monospace" font-size="11.00">StreamInterface</text>
</g>
<!-- \\interfaces\\http\\UriInterface -->
<g id="node28" class="node"><title>\\interfaces\\http\\UriInterface</title>
<polygon fill="none" stroke="black" points="563.5,-1962 465.5,-1962 465.5,-1926 563.5,-1926 563.5,-1962"/>
<text text-anchor="middle" x="514.5" y="-1941.2" font-family="Courier,monospace" font-size="11.00">UriInterface</text>
</g>
<!-- \\interfaces\\LoggerInterface -->
<g id="node31" class="node"><title>\\interfaces\\LoggerInterface</title>
<polygon fill="none" stroke="black" points="573.5,-1854 455.5,-1854 455.5,-1818 573.5,-1818 573.5,-1854"/>
<text text-anchor="middle" x="514.5" y="-1833.2" font-family="Courier,monospace" font-size="11.00">LoggerInterface</text>
</g>
<!-- \\traits\\FiltersTrait -->
<g id="node32" class="node"><title>\\traits\\FiltersTrait</title>
<polygon fill="none" stroke="black" points="1027.5,-420 929.5,-420 929.5,-384 1027.5,-384 1027.5,-420"/>
<text text-anchor="middle" x="978.5" y="-399.2" font-family="Courier,monospace" font-size="11.00">FiltersTrait</text>
</g>
<!-- \\traits\\PrettyOutputTrait -->
<g id="node33" class="node"><title>\\traits\\PrettyOutputTrait</title>
<polygon fill="none" stroke="black" points="1044,-366 913,-366 913,-330 1044,-330 1044,-366"/>
<text text-anchor="middle" x="978.5" y="-345.2" font-family="Courier,monospace" font-size="11.00">PrettyOutputTrait</text>
</g>
<!-- \\traits\\EchoTrait -->
<g id="node34" class="node"><title>\\traits\\EchoTrait</title>
<polygon fill="none" stroke="black" points="1017,-312 940,-312 940,-276 1017,-276 1017,-312"/>
<text text-anchor="middle" x="978.5" y="-291.2" font-family="Courier,monospace" font-size="11.00">EchoTrait</text>
</g>
<!-- \\traits\\ShortcutsTrait -->
<g id="node35" class="node"><title>\\traits\\ShortcutsTrait</title>
<polygon fill="none" stroke="black" points="1034,-258 923,-258 923,-222 1034,-222 1034,-258"/>
<text text-anchor="middle" x="978.5" y="-237.2" font-family="Courier,monospace" font-size="11.00">ShortcutsTrait</text>
</g>
<!-- \\Iterator -->
<g id="node44" class="node"><title>\\Iterator</title>
<ellipse fill="none" stroke="black" cx="514.5" cy="-180" rx="39.7935" ry="18"/>
<text text-anchor="middle" x="514.5" y="-176.3" font-family="Times New Roman,serif" font-size="14.00" fill="gray">\Iterator</text>
</g>
<!-- \\abstracts\\designPatterns\\Collection&#45;&gt;\\Iterator -->
<g id="edge13" class="edge"><title>\\abstracts\\designPatterns\\Collection&#45;&gt;\\Iterator</title>
<path fill="none" stroke="black" stroke-dasharray="1,5" d="M695.838,-1992.39C682.727,-1988.52 669.447,-1981.99 661,-1971 604.801,-1897.87 528.256,-431.225 516.925,-208.298"/>
<polygon fill="none" stroke="black" points="520.409,-207.894 516.407,-198.084 513.418,-208.249 520.409,-207.894"/>
</g>
<!-- \\ArrayAccess -->
<g id="node45" class="node"><title>\\ArrayAccess</title>
<ellipse fill="none" stroke="black" cx="514.5" cy="-126" rx="60.3893" ry="18"/>
<text text-anchor="middle" x="514.5" y="-122.3" font-family="Times New Roman,serif" font-size="14.00" fill="gray">\ArrayAccess</text>
</g>
<!-- \\abstracts\\designPatterns\\Collection&#45;&gt;\\ArrayAccess -->
<g id="edge14" class="edge"><title>\\abstracts\\designPatterns\\Collection&#45;&gt;\\ArrayAccess</title>
<path fill="none" stroke="black" stroke-dasharray="1,5" d="M695.894,-1992.76C682.622,-1988.93 669.226,-1982.33 661,-1971 542.291,-1807.47 737.454,-312.197 613,-153 605.521,-143.433 594.969,-137.064 583.551,-132.863"/>
<polygon fill="none" stroke="black" points="584.393,-129.46 573.804,-129.823 582.308,-136.142 584.393,-129.46"/>
</g>
<!-- \\Countable -->
<g id="node46" class="node"><title>\\Countable</title>
<ellipse fill="none" stroke="black" cx="514.5" cy="-72" rx="50.0912" ry="18"/>
<text text-anchor="middle" x="514.5" y="-68.3" font-family="Times New Roman,serif" font-size="14.00" fill="gray">\Countable</text>
</g>
<!-- \\abstracts\\designPatterns\\Collection&#45;&gt;\\Countable -->
<g id="edge15" class="edge"><title>\\abstracts\\designPatterns\\Collection&#45;&gt;\\Countable</title>
<path fill="none" stroke="black" stroke-dasharray="1,5" d="M695.889,-1992.77C682.617,-1988.93 669.222,-1982.33 661,-1971 538.832,-1802.57 741.086,-262.971 613,-99 603.51,-86.8507 589.065,-79.8585 574.18,-75.9153"/>
<polygon fill="none" stroke="black" points="574.903,-72.4906 564.382,-73.7408 573.386,-79.3243 574.903,-72.4906"/>
</g>
<!-- \\SeekableIterator -->
<g id="node47" class="node"><title>\\SeekableIterator</title>
<ellipse fill="none" stroke="black" cx="514.5" cy="-18" rx="71.4873" ry="18"/>
<text text-anchor="middle" x="514.5" y="-14.3" font-family="Times New Roman,serif" font-size="14.00" fill="gray">\SeekableIterator</text>
</g>
<!-- \\abstracts\\designPatterns\\Collection&#45;&gt;\\SeekableIterator -->
<g id="edge16" class="edge"><title>\\abstracts\\designPatterns\\Collection&#45;&gt;\\SeekableIterator</title>
<path fill="none" stroke="black" stroke-dasharray="1,5" d="M695.884,-1992.77C682.612,-1988.94 669.217,-1982.34 661,-1971 535.372,-1797.67 744.717,-213.745 613,-45 607.286,-37.6792 599.772,-32.2307 591.447,-28.1933"/>
<polygon fill="none" stroke="black" points="592.72,-24.9323 582.141,-24.3445 590.045,-31.4008 592.72,-24.9323"/>
</g>
<!-- \\abstracts\\AbstractLogger&#45;&gt;\\interfaces\\LoggerInterface -->
<g id="edge11" class="edge"><title>\\abstracts\\AbstractLogger&#45;&gt;\\interfaces\\LoggerInterface</title>
<path fill="none" stroke="black" stroke-dasharray="1,5" d="M682.147,-2116.05C674.196,-2112.79 666.765,-2108.27 661,-2102 587.657,-2022.26 686.805,-1942.32 613,-1863 604.914,-1854.31 594.303,-1848.33 583.064,-1844.23"/>
<polygon fill="none" stroke="black" points="584.106,-1840.89 573.516,-1841.21 581.995,-1847.56 584.106,-1840.89"/>
</g>
<!-- \\abstracts\\AbstractController -->
<g id="node40" class="node"><title>\\abstracts\\AbstractController</title>
<polygon fill="none" stroke="black" points="807,-1908 669,-1908 669,-1872 807,-1872 807,-1908"/>
<text text-anchor="start" x="704" y="-1893.2" font-family="Courier,monospace" font-size="11.00">«abstract»</text>
<text text-anchor="start" x="677" y="-1881.2" font-family="Courier,monospace" font-size="11.00">AbstractController</text>
</g>
<!-- \\abstracts\\API -->
<g id="node41" class="node"><title>\\abstracts\\API</title>
<polygon fill="none" stroke="black" points="780,-1854 696,-1854 696,-1818 780,-1818 780,-1854"/>
<text text-anchor="start" x="704" y="-1839.2" font-family="Courier,monospace" font-size="11.00">«abstract»</text>
<text text-anchor="start" x="727.5" y="-1827.2" font-family="Courier,monospace" font-size="11.00">API</text>
</g>
</g>
</svg>
