<?xml version="1.0" encoding="UTF-8" standalone="no"?>
<!DOCTYPE svg PUBLIC "-//W3C//DTD SVG 1.1//EN"
 "http://www.w3.org/Graphics/SVG/1.1/DTD/svg11.dtd">
<!-- Generated by graphviz version 2.38.0 (20140413.2041)
 -->
<!-- Title: G Pages: 1 -->
<svg width="1125pt" height="2330pt"
 viewBox="0.00 0.00 1125.00 2330.00" xmlns="http://www.w3.org/2000/svg" xmlns:xlink="http://www.w3.org/1999/xlink">
<g id="graph0" class="graph" transform="scale(1 1) rotate(0) translate(4 2326)">
<title>G</title>
<polygon fill="white" stroke="none" points="-4,4 -4,-2326 1121,-2326 1121,4 -4,4"/>
<g id="clust1" class="cluster"><title>cluster_Global</title>
<path fill="none" stroke="gray" d="M20,-206C20,-206 1097,-206 1097,-206 1103,-206 1109,-212 1109,-218 1109,-218 1109,-2302 1109,-2302 1109,-2308 1103,-2314 1097,-2314 1097,-2314 20,-2314 20,-2314 14,-2314 8,-2308 8,-2302 8,-2302 8,-218 8,-218 8,-212 14,-206 20,-206"/>
<text text-anchor="middle" x="558.5" y="-2301.2" font-family="Times New Roman,serif" font-size="11.00" fill="gray">Global</text>
</g>
<g id="clust4" class="cluster"><title>cluster_\classes</title>
<path fill="none" stroke="gray" d="M705.5,-456C705.5,-456 1089,-456 1089,-456 1095,-456 1101,-462 1101,-468 1101,-468 1101,-1896 1101,-1896 1101,-1902 1095,-1908 1089,-1908 1089,-1908 705.5,-1908 705.5,-1908 699.5,-1908 693.5,-1902 693.5,-1896 693.5,-1896 693.5,-468 693.5,-468 693.5,-462 699.5,-456 705.5,-456"/>
<text text-anchor="middle" x="897.25" y="-1895.2" font-family="Times New Roman,serif" font-size="11.00" fill="gray">classes</text>
</g>
<g id="clust5" class="cluster"><title>cluster_\classes\console</title>
<path fill="none" stroke="gray" d="M934,-1754C934,-1754 1030,-1754 1030,-1754 1036,-1754 1042,-1760 1042,-1766 1042,-1766 1042,-1868 1042,-1868 1042,-1874 1036,-1880 1030,-1880 1030,-1880 934,-1880 934,-1880 928,-1880 922,-1874 922,-1868 922,-1868 922,-1766 922,-1766 922,-1760 928,-1754 934,-1754"/>
<text text-anchor="middle" x="982" y="-1867.2" font-family="Times New Roman,serif" font-size="11.00" fill="gray">console</text>
</g>
<g id="clust6" class="cluster"><title>cluster_\classes\entities</title>
<path fill="none" stroke="gray" d="M927,-1512C927,-1512 1037,-1512 1037,-1512 1043,-1512 1049,-1518 1049,-1524 1049,-1524 1049,-1734 1049,-1734 1049,-1740 1043,-1746 1037,-1746 1037,-1746 927,-1746 927,-1746 921,-1746 915,-1740 915,-1734 915,-1734 915,-1524 915,-1524 915,-1518 921,-1512 927,-1512"/>
<text text-anchor="middle" x="982" y="-1733.2" font-family="Times New Roman,serif" font-size="11.00" fill="gray">entities</text>
</g>
<g id="clust8" class="cluster"><title>cluster_\classes\entitiesManager</title>
<path fill="none" stroke="gray" d="M883,-1216C883,-1216 1081,-1216 1081,-1216 1087,-1216 1093,-1222 1093,-1228 1093,-1228 1093,-1492 1093,-1492 1093,-1498 1087,-1504 1081,-1504 1081,-1504 883,-1504 883,-1504 877,-1504 871,-1498 871,-1492 871,-1492 871,-1228 871,-1228 871,-1222 877,-1216 883,-1216"/>
<text text-anchor="middle" x="982" y="-1491.2" font-family="Times New Roman,serif" font-size="11.00" fill="gray">entitiesManager</text>
</g>
<g id="clust7" class="cluster"><title>cluster_\classes\entitiesCollection</title>
<path fill="none" stroke="gray" d="M930.5,-1136C930.5,-1136 1033.5,-1136 1033.5,-1136 1039.5,-1136 1045.5,-1142 1045.5,-1148 1045.5,-1148 1045.5,-1196 1045.5,-1196 1045.5,-1202 1039.5,-1208 1033.5,-1208 1033.5,-1208 930.5,-1208 930.5,-1208 924.5,-1208 918.5,-1202 918.5,-1196 918.5,-1196 918.5,-1148 918.5,-1148 918.5,-1142 924.5,-1136 930.5,-1136"/>
<text text-anchor="middle" x="982" y="-1195.2" font-family="Times New Roman,serif" font-size="11.00" fill="gray">entitiesCollection</text>
</g>
<g id="clust10" class="cluster"><title>cluster_\classes\websocket</title>
<path fill="none" stroke="gray" d="M713.5,-832C713.5,-832 1031.5,-832 1031.5,-832 1037.5,-832 1043.5,-838 1043.5,-844 1043.5,-844 1043.5,-928 1043.5,-928 1043.5,-934 1037.5,-940 1031.5,-940 1031.5,-940 713.5,-940 713.5,-940 707.5,-940 701.5,-934 701.5,-928 701.5,-928 701.5,-844 701.5,-844 701.5,-838 707.5,-832 713.5,-832"/>
<text text-anchor="middle" x="872.5" y="-927.2" font-family="Times New Roman,serif" font-size="11.00" fill="gray">websocket</text>
</g>
<g id="clust11" class="cluster"><title>cluster_\classes\websocket\services</title>
<path fill="none" stroke="gray" d="M940.5,-840C940.5,-840 1023.5,-840 1023.5,-840 1029.5,-840 1035.5,-846 1035.5,-852 1035.5,-852 1035.5,-900 1035.5,-900 1035.5,-906 1029.5,-912 1023.5,-912 1023.5,-912 940.5,-912 940.5,-912 934.5,-912 928.5,-906 928.5,-900 928.5,-900 928.5,-852 928.5,-852 928.5,-846 934.5,-840 940.5,-840"/>
<text text-anchor="middle" x="982" y="-899.2" font-family="Times New Roman,serif" font-size="11.00" fill="gray">services</text>
</g>
<g id="clust9" class="cluster"><title>cluster_\classes\logger</title>
<path fill="none" stroke="gray" d="M934,-948C934,-948 1030,-948 1030,-948 1036,-948 1042,-954 1042,-960 1042,-960 1042,-1116 1042,-1116 1042,-1122 1036,-1128 1030,-1128 1030,-1128 934,-1128 934,-1128 928,-1128 922,-1122 922,-1116 922,-1116 922,-960 922,-960 922,-954 928,-948 934,-948"/>
<text text-anchor="middle" x="982" y="-1115.2" font-family="Times New Roman,serif" font-size="11.00" fill="gray">logger</text>
</g>
<g id="clust2" class="cluster"><title>cluster_\abstracts</title>
<path fill="none" stroke="gray" d="M673,-1916C673,-1916 803,-1916 803,-1916 809,-1916 815,-1922 815,-1928 815,-1928 815,-2264 815,-2264 815,-2270 809,-2276 803,-2276 803,-2276 673,-2276 673,-2276 667,-2276 661,-2270 661,-2264 661,-2264 661,-1928 661,-1928 661,-1922 667,-1916 673,-1916"/>
<text text-anchor="middle" x="738" y="-2263.2" font-family="Times New Roman,serif" font-size="11.00" fill="gray">abstracts</text>
</g>
<g id="clust3" class="cluster"><title>cluster_\abstracts\designPatterns</title>
<path fill="none" stroke="gray" d="M690,-1970C690,-1970 786,-1970 786,-1970 792,-1970 798,-1976 798,-1982 798,-1982 798,-2138 798,-2138 798,-2144 792,-2150 786,-2150 786,-2150 690,-2150 690,-2150 684,-2150 678,-2144 678,-2138 678,-2138 678,-1982 678,-1982 678,-1976 684,-1970 690,-1970"/>
<text text-anchor="middle" x="738" y="-2137.2" font-family="Times New Roman,serif" font-size="11.00" fill="gray">designPatterns</text>
</g>
<g id="clust12" class="cluster"><title>cluster_\interfaces</title>
<path fill="none" stroke="gray" d="M28,-1916C28,-1916 601,-1916 601,-1916 607,-1916 613,-1922 613,-1928 613,-1928 613,-2274 613,-2274 613,-2280 607,-2286 601,-2286 601,-2286 28,-2286 28,-2286 22,-2286 16,-2280 16,-2274 16,-2274 16,-1928 16,-1928 16,-1922 22,-1916 28,-1916"/>
<text text-anchor="middle" x="314.5" y="-2273.2" font-family="Times New Roman,serif" font-size="11.00" fill="gray">interfaces</text>
</g>
<g id="clust13" class="cluster"><title>cluster_\interfaces\http</title>
<path fill="none" stroke="gray" d="M36,-2024C36,-2024 593,-2024 593,-2024 599,-2024 605,-2030 605,-2036 605,-2036 605,-2246 605,-2246 605,-2252 599,-2258 593,-2258 593,-2258 36,-2258 36,-2258 30,-2258 24,-2252 24,-2246 24,-2246 24,-2036 24,-2036 24,-2030 30,-2024 36,-2024"/>
<text text-anchor="middle" x="314.5" y="-2245.2" font-family="Times New Roman,serif" font-size="11.00" fill="gray">http</text>
</g>
<g id="clust14" class="cluster"><title>cluster_\traits</title>
<path fill="none" stroke="gray" d="M920.5,-214C920.5,-214 1043.5,-214 1043.5,-214 1049.5,-214 1055.5,-220 1055.5,-226 1055.5,-226 1055.5,-436 1055.5,-436 1055.5,-442 1049.5,-448 1043.5,-448 1043.5,-448 920.5,-448 920.5,-448 914.5,-448 908.5,-442 908.5,-436 908.5,-436 908.5,-226 908.5,-226 908.5,-220 914.5,-214 920.5,-214"/>
<text text-anchor="middle" x="982" y="-435.2" font-family="Times New Roman,serif" font-size="11.00" fill="gray">traits</text>
</g>
<!-- \\abstracts\\designPatterns\\Collection -->
<g id="node1" class="node"><title>\\abstracts\\designPatterns\\Collection</title>
<polygon fill="none" stroke="black" points="780,-2014 696,-2014 696,-1978 780,-1978 780,-2014"/>
<text text-anchor="start" x="704" y="-1999.2" font-family="Courier,monospace" font-size="11.00">«abstract»</text>
<text text-anchor="start" x="704" y="-1987.2" font-family="Courier,monospace" font-size="11.00">Collection</text>
</g>
<!-- \\Iterator -->
<g id="node44" class="node"><title>\\Iterator</title>
<ellipse fill="none" stroke="black" cx="514.5" cy="-180" rx="39.7935" ry="18"/>
<text text-anchor="middle" x="514.5" y="-176.3" font-family="Times New Roman,serif" font-size="14.00" fill="gray">\Iterator</text>
</g>
<!-- \\abstracts\\designPatterns\\Collection&#45;&gt;\\Iterator -->
<g id="edge2" class="edge"><title>\\abstracts\\designPatterns\\Collection&#45;&gt;\\Iterator</title>
<path fill="none" stroke="black" stroke-dasharray="1,5" d="M695.617,-1993.12C682.65,-1990.09 669.516,-1984.42 661,-1974 544.351,-1831.21 519.117,-426.8 515.889,-208.465"/>
<polygon fill="none" stroke="black" points="519.384,-208.113 515.74,-198.165 512.385,-208.214 519.384,-208.113"/>
</g>
<!-- \\ArrayAccess -->
<g id="node45" class="node"><title>\\ArrayAccess</title>
<ellipse fill="none" stroke="black" cx="514.5" cy="-126" rx="60.3893" ry="18"/>
<text text-anchor="middle" x="514.5" y="-122.3" font-family="Times New Roman,serif" font-size="14.00" fill="gray">\ArrayAccess</text>
</g>
<!-- \\abstracts\\designPatterns\\Collection&#45;&gt;\\ArrayAccess -->
<g id="edge3" class="edge"><title>\\abstracts\\designPatterns\\Collection&#45;&gt;\\ArrayAccess</title>
<path fill="none" stroke="black" stroke-dasharray="1,5" d="M695.687,-1993.47C682.562,-1990.49 669.313,-1984.76 661,-1974 537.273,-1813.82 737.656,-312.462 613,-153 605.521,-143.432 594.97,-137.063 583.551,-132.863"/>
<polygon fill="none" stroke="black" points="584.393,-129.459 573.804,-129.822 582.308,-136.142 584.393,-129.459"/>
</g>
<!-- \\Countable -->
<g id="node46" class="node"><title>\\Countable</title>
<ellipse fill="none" stroke="black" cx="514.5" cy="-72" rx="50.0912" ry="18"/>
<text text-anchor="middle" x="514.5" y="-68.3" font-family="Times New Roman,serif" font-size="14.00" fill="gray">\Countable</text>
</g>
<!-- \\abstracts\\designPatterns\\Collection&#45;&gt;\\Countable -->
<g id="edge4" class="edge"><title>\\abstracts\\designPatterns\\Collection&#45;&gt;\\Countable</title>
<path fill="none" stroke="black" stroke-dasharray="1,5" d="M695.682,-1993.47C682.557,-1990.49 669.309,-1984.77 661,-1974 533.669,-1809.02 741.287,-263.236 613,-99 603.51,-86.8505 589.066,-79.8583 574.18,-75.915"/>
<polygon fill="none" stroke="black" points="574.903,-72.4904 564.382,-73.7405 573.386,-79.3241 574.903,-72.4904"/>
</g>
<!-- \\SeekableIterator -->
<g id="node47" class="node"><title>\\SeekableIterator</title>
<ellipse fill="none" stroke="black" cx="514.5" cy="-18" rx="71.4873" ry="18"/>
<text text-anchor="middle" x="514.5" y="-14.3" font-family="Times New Roman,serif" font-size="14.00" fill="gray">\SeekableIterator</text>
</g>
<!-- \\abstracts\\designPatterns\\Collection&#45;&gt;\\SeekableIterator -->
<g id="edge5" class="edge"><title>\\abstracts\\designPatterns\\Collection&#45;&gt;\\SeekableIterator</title>
<path fill="none" stroke="black" stroke-dasharray="1,5" d="M695.678,-1993.48C682.552,-1990.5 669.305,-1984.77 661,-1974 530.065,-1804.23 744.919,-214.011 613,-45 607.286,-37.6791 599.773,-32.2305 591.447,-28.1931"/>
<polygon fill="none" stroke="black" points="592.72,-24.9321 582.142,-24.3442 590.045,-31.4006 592.72,-24.9321"/>
</g>
<!-- \\abstracts\\designPatterns\\Entity -->
<g id="node2" class="node"><title>\\abstracts\\designPatterns\\Entity</title>
<polygon fill="none" stroke="black" points="780,-2122 696,-2122 696,-2086 780,-2086 780,-2122"/>
<text text-anchor="start" x="704" y="-2107.2" font-family="Courier,monospace" font-size="11.00">«abstract»</text>
<text text-anchor="start" x="717.5" y="-2095.2" font-family="Courier,monospace" font-size="11.00">Entity</text>
</g>
<!-- \\abstracts\\designPatterns\\EntityManager -->
<g id="node3" class="node"><title>\\abstracts\\designPatterns\\EntityManager</title>
<polygon fill="none" stroke="black" points="790,-2068 686,-2068 686,-2032 790,-2032 790,-2068"/>
<text text-anchor="start" x="704" y="-2053.2" font-family="Courier,monospace" font-size="11.00">«abstract»</text>
<text text-anchor="start" x="694" y="-2041.2" font-family="Courier,monospace" font-size="11.00">EntityManager</text>
</g>
<!-- \\abstracts\\AbstractController -->
<g id="node4" class="node"><title>\\abstracts\\AbstractController</title>
<polygon fill="none" stroke="black" points="807,-2194 669,-2194 669,-2158 807,-2158 807,-2194"/>
<text text-anchor="start" x="704" y="-2179.2" font-family="Courier,monospace" font-size="11.00">«abstract»</text>
<text text-anchor="start" x="677" y="-2167.2" font-family="Courier,monospace" font-size="11.00">AbstractController</text>
</g>
<!-- \\abstracts\\AbstractLogger -->
<g id="node5" class="node"><title>\\abstracts\\AbstractLogger</title>
<polygon fill="none" stroke="black" points="793.5,-2248 682.5,-2248 682.5,-2212 793.5,-2212 793.5,-2248"/>
<text text-anchor="start" x="704" y="-2233.2" font-family="Courier,monospace" font-size="11.00">«abstract»</text>
<text text-anchor="start" x="690.5" y="-2221.2" font-family="Courier,monospace" font-size="11.00">AbstractLogger</text>
</g>
<!-- \\interfaces\\LoggerInterface -->
<g id="node38" class="node"><title>\\interfaces\\LoggerInterface</title>
<polygon fill="none" stroke="black" points="573.5,-1960 455.5,-1960 455.5,-1924 573.5,-1924 573.5,-1960"/>
<text text-anchor="middle" x="514.5" y="-1939.2" font-family="Courier,monospace" font-size="11.00">LoggerInterface</text>
</g>
<!-- \\abstracts\\AbstractLogger&#45;&gt;\\interfaces\\LoggerInterface -->
<g id="edge1" class="edge"><title>\\abstracts\\AbstractLogger&#45;&gt;\\interfaces\\LoggerInterface</title>
<path fill="none" stroke="black" stroke-dasharray="1,5" d="M682.414,-2218.45C674.332,-2214.67 666.789,-2209.66 661,-2203 591.325,-2122.9 685.482,-2046.57 613,-1969 605.024,-1960.46 594.61,-1954.54 583.564,-1950.45"/>
<polygon fill="none" stroke="black" points="584.331,-1947.02 573.74,-1947.3 582.198,-1953.69 584.331,-1947.02"/>
</g>
<!-- \\abstracts\\API -->
<g id="node6" class="node"><title>\\abstracts\\API</title>
<polygon fill="none" stroke="black" points="780,-1960 696,-1960 696,-1924 780,-1924 780,-1960"/>
<text text-anchor="start" x="704" y="-1945.2" font-family="Courier,monospace" font-size="11.00">«abstract»</text>
<text text-anchor="start" x="727.5" y="-1933.2" font-family="Courier,monospace" font-size="11.00">API</text>
</g>
<!-- \\classes\\console\\Console -->
<g id="node7" class="node"><title>\\classes\\console\\Console</title>
<polygon fill="none" stroke="black" points="1014,-1852 950,-1852 950,-1816 1014,-1816 1014,-1852"/>
<text text-anchor="middle" x="982" y="-1831.2" font-family="Courier,monospace" font-size="11.00">Console</text>
</g>
<!-- \\classes\\console\\ConsoleColors -->
<g id="node8" class="node"><title>\\classes\\console\\ConsoleColors</title>
<polygon fill="none" stroke="black" points="1034,-1798 930,-1798 930,-1762 1034,-1762 1034,-1798"/>
<text text-anchor="middle" x="982" y="-1777.2" font-family="Courier,monospace" font-size="11.00">ConsoleColors</text>
</g>
<!-- \\classes\\entities\\User -->
<g id="node9" class="node"><title>\\classes\\entities\\User</title>
<polygon fill="none" stroke="black" points="1009,-1718 955,-1718 955,-1682 1009,-1682 1009,-1718"/>
<text text-anchor="middle" x="982" y="-1697.2" font-family="Courier,monospace" font-size="11.00">User</text>
</g>
<!-- \\classes\\entities\\User&#45;&gt;\\abstracts\\designPatterns\\Entity -->
<g id="edge6" class="edge"><title>\\classes\\entities\\User&#45;&gt;\\abstracts\\designPatterns\\Entity</title>
<path fill="none" stroke="black" d="M954.842,-1704.61C929.341,-1710.53 891.496,-1723.42 871,-1750 780.959,-1866.76 909.936,-1964.18 815,-2077 808.374,-2084.87 799.287,-2090.45 789.7,-2094.41"/>
<polygon fill="none" stroke="black" points="788.273,-2091.2 780.018,-2097.84 790.613,-2097.79 788.273,-2091.2"/>
</g>
<!-- \\classes\\entities\\UsersChatRights -->
<g id="node10" class="node"><title>\\classes\\entities\\UsersChatRights</title>
<polygon fill="none" stroke="black" points="1041,-1664 923,-1664 923,-1628 1041,-1628 1041,-1664"/>
<text text-anchor="middle" x="982" y="-1643.2" font-family="Courier,monospace" font-size="11.00">UsersChatRights</text>
</g>
<!-- \\classes\\entities\\UsersChatRights&#45;&gt;\\abstracts\\designPatterns\\Entity -->
<g id="edge7" class="edge"><title>\\classes\\entities\\UsersChatRights&#45;&gt;\\abstracts\\designPatterns\\Entity</title>
<path fill="none" stroke="black" d="M922.913,-1647.59C903.836,-1651.08 884.171,-1658.4 871,-1673 749.587,-1807.6 929.488,-1936.46 815,-2077 808.5,-2084.98 799.468,-2090.6 789.893,-2094.56"/>
<polygon fill="none" stroke="black" points="788.465,-2091.36 780.211,-2098 790.806,-2097.95 788.465,-2091.36"/>
</g>
<!-- \\classes\\entities\\UsersRights -->
<g id="node11" class="node"><title>\\classes\\entities\\UsersRights</title>
<polygon fill="none" stroke="black" points="1027.5,-1610 936.5,-1610 936.5,-1574 1027.5,-1574 1027.5,-1610"/>
<text text-anchor="middle" x="982" y="-1589.2" font-family="Courier,monospace" font-size="11.00">UsersRights</text>
</g>
<!-- \\classes\\entities\\UsersRights&#45;&gt;\\abstracts\\designPatterns\\Entity -->
<g id="edge8" class="edge"><title>\\classes\\entities\\UsersRights&#45;&gt;\\abstracts\\designPatterns\\Entity</title>
<path fill="none" stroke="black" d="M936.333,-1591.59C913.5,-1593.86 887.186,-1600.76 871,-1619 734.874,-1772.38 943.237,-1916.97 815,-2077 808.564,-2085.03 799.559,-2090.68 789.991,-2094.64"/>
<polygon fill="none" stroke="black" points="788.563,-2091.44 780.309,-2098.08 790.904,-2098.03 788.563,-2091.44"/>
</g>
<!-- \\classes\\entities\\UserStatistics -->
<g id="node12" class="node"><title>\\classes\\entities\\UserStatistics</title>
<polygon fill="none" stroke="black" points="1037.5,-1556 926.5,-1556 926.5,-1520 1037.5,-1520 1037.5,-1556"/>
<text text-anchor="middle" x="982" y="-1535.2" font-family="Courier,monospace" font-size="11.00">UserStatistics</text>
</g>
<!-- \\classes\\entities\\UserStatistics&#45;&gt;\\abstracts\\designPatterns\\Entity -->
<g id="edge9" class="edge"><title>\\classes\\entities\\UserStatistics&#45;&gt;\\abstracts\\designPatterns\\Entity</title>
<path fill="none" stroke="black" d="M926.393,-1538.75C906.157,-1541.93 884.801,-1549.25 871,-1565 720.141,-1737.17 957.006,-1897.46 815,-2077 808.616,-2085.07 799.632,-2090.73 790.069,-2094.71"/>
<polygon fill="none" stroke="black" points="788.642,-2091.5 780.387,-2098.14 790.982,-2098.1 788.642,-2091.5"/>
</g>
<!-- \\classes\\entitiesCollection\\UserCollection -->
<g id="node13" class="node"><title>\\classes\\entitiesCollection\\UserCollection</title>
<polygon fill="none" stroke="black" points="1037.5,-1180 926.5,-1180 926.5,-1144 1037.5,-1144 1037.5,-1180"/>
<text text-anchor="middle" x="982" y="-1159.2" font-family="Courier,monospace" font-size="11.00">UserCollection</text>
</g>
<!-- \\classes\\entitiesCollection\\UserCollection&#45;&gt;\\abstracts\\designPatterns\\Collection -->
<g id="edge10" class="edge"><title>\\classes\\entitiesCollection\\UserCollection&#45;&gt;\\abstracts\\designPatterns\\Collection</title>
<path fill="none" stroke="black" d="M926.492,-1174.07C905.758,-1181.5 884.016,-1193.33 871,-1212 773.905,-1351.29 921.92,-1842.1 815,-1974 808.577,-1981.92 799.487,-1987.1 789.817,-1990.46"/>
<polygon fill="none" stroke="black" points="788.69,-1987.14 780.031,-1993.25 790.607,-1993.87 788.69,-1987.14"/>
</g>
<!-- \\classes\\entitiesManager\\GlobalEntityManager -->
<g id="node14" class="node"><title>\\classes\\entitiesManager\\GlobalEntityManager</title>
<polygon fill="none" stroke="black" points="1054.5,-1476 909.5,-1476 909.5,-1440 1054.5,-1440 1054.5,-1476"/>
<text text-anchor="middle" x="982" y="-1455.2" font-family="Courier,monospace" font-size="11.00">GlobalEntityManager</text>
</g>
<!-- \\classes\\entitiesManager\\GlobalEntityManager&#45;&gt;\\abstracts\\designPatterns\\EntityManager -->
<g id="edge11" class="edge"><title>\\classes\\entitiesManager\\GlobalEntityManager&#45;&gt;\\abstracts\\designPatterns\\EntityManager</title>
<path fill="none" stroke="black" d="M912.744,-1476.05C896.721,-1483.43 881.328,-1493.72 871,-1508 736.057,-1694.55 957.772,-1842.37 815,-2023 810.741,-2028.39 805.325,-2032.7 799.35,-2036.16"/>
<polygon fill="none" stroke="black" points="797.694,-2033.07 790.268,-2040.63 800.786,-2039.35 797.694,-2033.07"/>
</g>
<!-- \\classes\\entitiesManager\\UserEntityManager -->
<g id="node15" class="node"><title>\\classes\\entitiesManager\\UserEntityManager</title>
<polygon fill="none" stroke="black" points="1047.5,-1422 916.5,-1422 916.5,-1386 1047.5,-1386 1047.5,-1422"/>
<text text-anchor="middle" x="982" y="-1401.2" font-family="Courier,monospace" font-size="11.00">UserEntityManager</text>
</g>
<!-- \\classes\\entitiesManager\\UserEntityManager&#45;&gt;\\abstracts\\designPatterns\\EntityManager -->
<g id="edge12" class="edge"><title>\\classes\\entitiesManager\\UserEntityManager&#45;&gt;\\abstracts\\designPatterns\\EntityManager</title>
<path fill="none" stroke="black" d="M916.242,-1406.57C899.217,-1410.45 882.437,-1417.75 871,-1431 784.644,-1531.02 896.215,-1918.76 815,-2023 810.779,-2028.42 805.386,-2032.75 799.424,-2036.21"/>
<polygon fill="none" stroke="black" points="797.77,-2033.13 790.354,-2040.7 800.87,-2039.4 797.77,-2033.13"/>
</g>
<!-- \\classes\\entitiesManager\\UsersChatRightsEntityManager -->
<g id="node16" class="node"><title>\\classes\\entitiesManager\\UsersChatRightsEntityManager</title>
<polygon fill="none" stroke="black" points="1085,-1368 879,-1368 879,-1332 1085,-1332 1085,-1368"/>
<text text-anchor="middle" x="982" y="-1347.2" font-family="Courier,monospace" font-size="11.00">UsersChatRightsEntityManager</text>
</g>
<!-- \\classes\\entitiesManager\\UsersChatRightsEntityManager&#45;&gt;\\abstracts\\designPatterns\\EntityManager -->
<g id="edge13" class="edge"><title>\\classes\\entitiesManager\\UsersChatRightsEntityManager&#45;&gt;\\abstracts\\designPatterns\\EntityManager</title>
<path fill="none" stroke="black" d="M880.352,-1368.2C876.957,-1370.79 873.814,-1373.71 871,-1377 777.262,-1486.44 903.114,-1908.99 815,-2023 810.743,-2028.51 805.273,-2032.9 799.221,-2036.39"/>
<polygon fill="none" stroke="black" points="797.457,-2033.36 790.013,-2040.9 800.533,-2039.64 797.457,-2033.36"/>
</g>
<!-- \\classes\\entitiesManager\\UsersRightsEntityManager -->
<g id="node17" class="node"><title>\\classes\\entitiesManager\\UsersRightsEntityManager</title>
<polygon fill="none" stroke="black" points="1071.5,-1314 892.5,-1314 892.5,-1278 1071.5,-1278 1071.5,-1314"/>
<text text-anchor="middle" x="982" y="-1293.2" font-family="Courier,monospace" font-size="11.00">UsersRightsEntityManager</text>
</g>
<!-- \\classes\\entitiesManager\\UsersRightsEntityManager&#45;&gt;\\abstracts\\designPatterns\\EntityManager -->
<g id="edge14" class="edge"><title>\\classes\\entitiesManager\\UsersRightsEntityManager&#45;&gt;\\abstracts\\designPatterns\\EntityManager</title>
<path fill="none" stroke="black" d="M892.474,-1306.66C884.327,-1310.71 876.925,-1316.04 871,-1323 769.877,-1441.85 910.016,-1899.21 815,-2023 810.761,-2028.52 805.302,-2032.92 799.257,-2036.42"/>
<polygon fill="none" stroke="black" points="797.493,-2033.38 790.054,-2040.93 800.574,-2039.67 797.493,-2033.38"/>
</g>
<!-- \\classes\\entitiesManager\\UserStatisticsEntityManager -->
<g id="node18" class="node"><title>\\classes\\entitiesManager\\UserStatisticsEntityManager</title>
<polygon fill="none" stroke="black" points="1081.5,-1260 882.5,-1260 882.5,-1224 1081.5,-1224 1081.5,-1260"/>
<text text-anchor="middle" x="982" y="-1239.2" font-family="Courier,monospace" font-size="11.00">UserStatisticsEntityManager</text>
</g>
<!-- \\classes\\entitiesManager\\UserStatisticsEntityManager&#45;&gt;\\abstracts\\designPatterns\\EntityManager -->
<g id="edge15" class="edge"><title>\\classes\\entitiesManager\\UserStatisticsEntityManager&#45;&gt;\\abstracts\\designPatterns\\EntityManager</title>
<path fill="none" stroke="black" d="M882.169,-1258.77C878.068,-1261.71 874.302,-1265.1 871,-1269 762.489,-1397.28 916.921,-1889.43 815,-2023 810.777,-2028.53 805.328,-2032.94 799.288,-2036.44"/>
<polygon fill="none" stroke="black" points="797.525,-2033.41 790.09,-2040.95 800.609,-2039.69 797.525,-2033.41"/>
</g>
<!-- \\classes\\logger\\ConsoleLogger -->
<g id="node19" class="node"><title>\\classes\\logger\\ConsoleLogger</title>
<polygon fill="none" stroke="black" points="1034,-1100 930,-1100 930,-1064 1034,-1064 1034,-1100"/>
<text text-anchor="middle" x="982" y="-1079.2" font-family="Courier,monospace" font-size="11.00">ConsoleLogger</text>
</g>
<!-- \\classes\\logger\\ConsoleLogger&#45;&gt;\\abstracts\\AbstractLogger -->
<g id="edge17" class="edge"><title>\\classes\\logger\\ConsoleLogger&#45;&gt;\\abstracts\\AbstractLogger</title>
<path fill="none" stroke="black" d="M929.729,-1092.75C907.958,-1100.06 884.527,-1112.15 871,-1132 736.785,-1328.94 957.487,-2011.96 815,-2203 811.599,-2207.56 807.364,-2211.35 802.644,-2214.51"/>
<polygon fill="none" stroke="black" points="800.712,-2211.58 793.702,-2219.52 804.136,-2217.68 800.712,-2211.58"/>
</g>
<!-- \\classes\\logger\\FileLogger -->
<g id="node20" class="node"><title>\\classes\\logger\\FileLogger</title>
<polygon fill="none" stroke="black" points="1024,-1046 940,-1046 940,-1010 1024,-1010 1024,-1046"/>
<text text-anchor="middle" x="982" y="-1025.2" font-family="Courier,monospace" font-size="11.00">FileLogger</text>
</g>
<!-- \\classes\\logger\\FileLogger&#45;&gt;\\abstracts\\AbstractLogger -->
<g id="edge18" class="edge"><title>\\classes\\logger\\FileLogger&#45;&gt;\\abstracts\\AbstractLogger</title>
<path fill="none" stroke="black" d="M939.926,-1026.79C916.023,-1028.47 887.448,-1035.05 871,-1055 708.533,-1252.08 967.346,-1997.99 815,-2203 811.607,-2207.57 807.377,-2211.36 802.661,-2214.52"/>
<polygon fill="none" stroke="black" points="800.729,-2211.59 793.723,-2219.54 804.157,-2217.69 800.729,-2211.59"/>
</g>
<!-- \\classes\\logger\\LogLevel -->
<g id="node21" class="node"><title>\\classes\\logger\\LogLevel</title>
<polygon fill="none" stroke="black" points="1017.5,-992 946.5,-992 946.5,-956 1017.5,-956 1017.5,-992"/>
<text text-anchor="middle" x="982" y="-971.2" font-family="Courier,monospace" font-size="11.00">LogLevel</text>
</g>
<!-- \\classes\\websocket\\services\\ChatService -->
<g id="node22" class="node"><title>\\classes\\websocket\\services\\ChatService</title>
<polygon fill="none" stroke="black" points="1027.5,-884 936.5,-884 936.5,-848 1027.5,-848 1027.5,-884"/>
<text text-anchor="middle" x="982" y="-863.2" font-family="Courier,monospace" font-size="11.00">ChatService</text>
</g>
<!-- \\classes\\websocket\\Server -->
<g id="node23" class="node"><title>\\classes\\websocket\\Server</title>
<polygon fill="none" stroke="black" points="766.5,-884 709.5,-884 709.5,-848 766.5,-848 766.5,-884"/>
<text text-anchor="middle" x="738" y="-863.2" font-family="Courier,monospace" font-size="11.00">Server</text>
</g>
<!-- \\classes\\websocket\\services\\ChatService&#45;&gt;\\classes\\websocket\\Server -->
<g id="edge20" class="edge"><title>\\classes\\websocket\\services\\ChatService&#45;&gt;\\classes\\websocket\\Server</title>
<path fill="none" stroke="black" d="M936.331,-866C890.532,-866 820.073,-866 776.906,-866"/>
<polygon fill="none" stroke="black" points="776.814,-862.5 766.814,-866 776.813,-869.5 776.814,-862.5"/>
</g>
<!-- \\interfaces\\ServiceInterface -->
<g id="node39" class="node"><title>\\interfaces\\ServiceInterface</title>
<polygon fill="none" stroke="black" points="577,-2014 452,-2014 452,-1978 577,-1978 577,-2014"/>
<text text-anchor="middle" x="514.5" y="-1993.2" font-family="Courier,monospace" font-size="11.00">ServiceInterface</text>
</g>
<!-- \\classes\\websocket\\services\\ChatService&#45;&gt;\\interfaces\\ServiceInterface -->
<g id="edge21" class="edge"><title>\\classes\\websocket\\services\\ChatService&#45;&gt;\\interfaces\\ServiceInterface</title>
<path fill="none" stroke="black" stroke-dasharray="1,5" d="M938.966,-884.063C914.544,-896.961 885.76,-916.85 871,-944 800.038,-1074.53 922.236,-2177.17 815,-2280 765.599,-2327.37 713.608,-2323.78 661,-2280 570.681,-2204.83 693.613,-2105.5 613,-2020 605.795,-2012.36 596.582,-2006.98 586.704,-2003.23"/>
<polygon fill="none" stroke="black" points="587.666,-1999.87 577.074,-2000.11 585.508,-2006.53 587.666,-1999.87"/>
</g>
<!-- \\classes\\Benchmark -->
<g id="node24" class="node"><title>\\classes\\Benchmark</title>
<polygon fill="none" stroke="black" points="1020.5,-824 943.5,-824 943.5,-788 1020.5,-788 1020.5,-824"/>
<text text-anchor="middle" x="982" y="-803.2" font-family="Courier,monospace" font-size="11.00">Benchmark</text>
</g>
<!-- \\classes\\DataBase -->
<g id="node25" class="node"><title>\\classes\\DataBase</title>
<polygon fill="none" stroke="black" points="1017.5,-770 946.5,-770 946.5,-734 1017.5,-734 1017.5,-770"/>
<text text-anchor="middle" x="982" y="-749.2" font-family="Courier,monospace" font-size="11.00">DataBase</text>
</g>
<!-- \\classes\\ExceptionManager -->
<g id="node26" class="node"><title>\\classes\\ExceptionManager</title>
<polygon fill="none" stroke="black" points="1044.5,-716 919.5,-716 919.5,-680 1044.5,-680 1044.5,-716"/>
<text text-anchor="middle" x="982" y="-695.2" font-family="Courier,monospace" font-size="11.00">ExceptionManager</text>
</g>
<!-- \\Exception -->
<g id="node48" class="node"><title>\\Exception</title>
<ellipse fill="none" stroke="black" cx="738" cy="-180" rx="50.0912" ry="18"/>
<text text-anchor="middle" x="738" y="-176.3" font-family="Times New Roman,serif" font-size="14.00" fill="gray">\Exception</text>
</g>
<!-- \\classes\\ExceptionManager&#45;&gt;\\Exception -->
<g id="edge16" class="edge"><title>\\classes\\ExceptionManager&#45;&gt;\\Exception</title>
<path fill="none" stroke="black" d="M919.33,-694.531C901.775,-690.696 883.932,-683.651 871,-671 803.03,-604.505 755.974,-302.171 742.771,-208.054"/>
<polygon fill="none" stroke="black" points="746.235,-207.551 741.396,-198.125 739.301,-208.511 746.235,-207.551"/>
</g>
<!-- \\classes\\ImagesManager -->
<g id="node27" class="node"><title>\\classes\\ImagesManager</title>
<polygon fill="none" stroke="black" points="1034,-662 930,-662 930,-626 1034,-626 1034,-662"/>
<text text-anchor="middle" x="982" y="-641.2" font-family="Courier,monospace" font-size="11.00">ImagesManager</text>
</g>
<!-- \\classes\\IniManager -->
<g id="node28" class="node"><title>\\classes\\IniManager</title>
<polygon fill="none" stroke="black" points="1024,-608 940,-608 940,-572 1024,-572 1024,-608"/>
<text text-anchor="middle" x="982" y="-587.2" font-family="Courier,monospace" font-size="11.00">IniManager</text>
</g>
<!-- \\classes\\LoggerManager -->
<g id="node29" class="node"><title>\\classes\\LoggerManager</title>
<polygon fill="none" stroke="black" points="1034,-554 930,-554 930,-518 1034,-518 1034,-554"/>
<text text-anchor="middle" x="982" y="-533.2" font-family="Courier,monospace" font-size="11.00">LoggerManager</text>
</g>
<!-- \\classes\\PDOStatementCustom -->
<g id="node30" class="node"><title>\\classes\\PDOStatementCustom</title>
<polygon fill="none" stroke="black" points="1051,-500 913,-500 913,-464 1051,-464 1051,-500"/>
<text text-anchor="middle" x="982" y="-479.2" font-family="Courier,monospace" font-size="11.00">PDOStatementCustom</text>
</g>
<!-- \\PDOStatement -->
<g id="node49" class="node"><title>\\PDOStatement</title>
<ellipse fill="none" stroke="black" cx="738" cy="-126" rx="67.6881" ry="18"/>
<text text-anchor="middle" x="738" y="-122.3" font-family="Times New Roman,serif" font-size="14.00" fill="gray">\PDOStatement</text>
</g>
<!-- \\classes\\PDOStatementCustom&#45;&gt;\\PDOStatement -->
<g id="edge19" class="edge"><title>\\classes\\PDOStatementCustom&#45;&gt;\\PDOStatement</title>
<path fill="none" stroke="black" d="M912.877,-475.801C897.243,-471.3 882.003,-463.933 871,-452 779.354,-352.602 902.85,-255.768 815,-153 811.153,-148.5 806.504,-144.75 801.422,-141.624"/>
<polygon fill="none" stroke="black" points="803.005,-138.502 792.527,-136.933 799.739,-144.694 803.005,-138.502"/>
</g>
<!-- \\interfaces\\http\\MessageInterface -->
<g id="node31" class="node"><title>\\interfaces\\http\\MessageInterface</title>
<polygon fill="none" stroke="black" points="157,-2203 32,-2203 32,-2167 157,-2167 157,-2203"/>
<text text-anchor="middle" x="94.5" y="-2182.2" font-family="Courier,monospace" font-size="11.00">MessageInterface</text>
</g>
<!-- \\interfaces\\http\\RequestInterface -->
<g id="node32" class="node"><title>\\interfaces\\http\\RequestInterface</title>
<polygon fill="none" stroke="black" points="357,-2176 232,-2176 232,-2140 357,-2140 357,-2176"/>
<text text-anchor="middle" x="294.5" y="-2155.2" font-family="Courier,monospace" font-size="11.00">RequestInterface</text>
</g>
<!-- \\interfaces\\http\\RequestInterface&#45;&gt;\\interfaces\\http\\MessageInterface -->
<g id="edge22" class="edge"><title>\\interfaces\\http\\RequestInterface&#45;&gt;\\interfaces\\http\\MessageInterface</title>
<path fill="none" stroke="black" d="M231.937,-2166.39C211.357,-2169.2 188.245,-2172.35 166.975,-2175.25"/>
<polygon fill="none" stroke="black" points="166.46,-2171.79 157.025,-2176.61 167.406,-2178.73 166.46,-2171.79"/>
</g>
<!-- \\interfaces\\http\\ResponseInterface -->
<g id="node33" class="node"><title>\\interfaces\\http\\ResponseInterface</title>
<polygon fill="none" stroke="black" points="360,-2230 229,-2230 229,-2194 360,-2194 360,-2230"/>
<text text-anchor="middle" x="294.5" y="-2209.2" font-family="Courier,monospace" font-size="11.00">ResponseInterface</text>
</g>
<!-- \\interfaces\\http\\ResponseInterface&#45;&gt;\\interfaces\\http\\MessageInterface -->
<g id="edge23" class="edge"><title>\\interfaces\\http\\ResponseInterface&#45;&gt;\\interfaces\\http\\MessageInterface</title>
<path fill="none" stroke="black" d="M228.941,-2203.2C209.247,-2200.51 187.475,-2197.54 167.33,-2194.8"/>
<polygon fill="none" stroke="black" points="167.658,-2191.31 157.277,-2193.42 166.712,-2198.24 167.658,-2191.31"/>
</g>
<!-- \\interfaces\\http\\ServerRequestInterface -->
<g id="node34" class="node"><title>\\interfaces\\http\\ServerRequestInterface</title>
<polygon fill="none" stroke="black" points="597,-2230 432,-2230 432,-2194 597,-2194 597,-2230"/>
<text text-anchor="middle" x="514.5" y="-2209.2" font-family="Courier,monospace" font-size="11.00">ServerRequestInterface</text>
</g>
<!-- \\interfaces\\http\\ServerRequestInterface&#45;&gt;\\interfaces\\http\\RequestInterface -->
<g id="edge24" class="edge"><title>\\interfaces\\http\\ServerRequestInterface&#45;&gt;\\interfaces\\http\\RequestInterface</title>
<path fill="none" stroke="black" d="M440.606,-2193.94C416.887,-2188.07 390.597,-2181.56 366.982,-2175.71"/>
<polygon fill="none" stroke="black" points="367.589,-2172.25 357.041,-2173.24 365.906,-2179.05 367.589,-2172.25"/>
</g>
<!-- \\interfaces\\http\\StreamInterface -->
<g id="node35" class="node"><title>\\interfaces\\http\\StreamInterface</title>
<polygon fill="none" stroke="black" points="573.5,-2176 455.5,-2176 455.5,-2140 573.5,-2140 573.5,-2176"/>
<text text-anchor="middle" x="514.5" y="-2155.2" font-family="Courier,monospace" font-size="11.00">StreamInterface</text>
</g>
<!-- \\interfaces\\http\\UploadedFileInterface -->
<g id="node36" class="node"><title>\\interfaces\\http\\UploadedFileInterface</title>
<polygon fill="none" stroke="black" points="593.5,-2122 435.5,-2122 435.5,-2086 593.5,-2086 593.5,-2122"/>
<text text-anchor="middle" x="514.5" y="-2101.2" font-family="Courier,monospace" font-size="11.00">UploadedFileInterface</text>
</g>
<!-- \\interfaces\\http\\UriInterface -->
<g id="node37" class="node"><title>\\interfaces\\http\\UriInterface</title>
<polygon fill="none" stroke="black" points="563.5,-2068 465.5,-2068 465.5,-2032 563.5,-2032 563.5,-2068"/>
<text text-anchor="middle" x="514.5" y="-2047.2" font-family="Courier,monospace" font-size="11.00">UriInterface</text>
</g>
<!-- \\traits\\EchoTrait -->
<g id="node40" class="node"><title>\\traits\\EchoTrait</title>
<polygon fill="none" stroke="black" points="1020.5,-420 943.5,-420 943.5,-384 1020.5,-384 1020.5,-420"/>
<text text-anchor="middle" x="982" y="-399.2" font-family="Courier,monospace" font-size="11.00">EchoTrait</text>
</g>
<!-- \\traits\\FiltersTrait -->
<g id="node41" class="node"><title>\\traits\\FiltersTrait</title>
<polygon fill="none" stroke="black" points="1031,-366 933,-366 933,-330 1031,-330 1031,-366"/>
<text text-anchor="middle" x="982" y="-345.2" font-family="Courier,monospace" font-size="11.00">FiltersTrait</text>
</g>
<!-- \\traits\\PrettyOutputTrait -->
<g id="node42" class="node"><title>\\traits\\PrettyOutputTrait</title>
<polygon fill="none" stroke="black" points="1047.5,-312 916.5,-312 916.5,-276 1047.5,-276 1047.5,-312"/>
<text text-anchor="middle" x="982" y="-291.2" font-family="Courier,monospace" font-size="11.00">PrettyOutputTrait</text>
</g>
<!-- \\traits\\ShortcutsTrait -->
<g id="node43" class="node"><title>\\traits\\ShortcutsTrait</title>
<polygon fill="none" stroke="black" points="1037.5,-258 926.5,-258 926.5,-222 1037.5,-222 1037.5,-258"/>
<text text-anchor="middle" x="982" y="-237.2" font-family="Courier,monospace" font-size="11.00">ShortcutsTrait</text>
</g>
</g>
</svg>
